<svg xmlns="http://www.w3.org/2000/svg" width="175" height="25" viewBox="0 0 175 25" fill="none">
  <g clip-path="url(#clip0_1024_26167)">
    <path d="M50.8549 19.9857C54.1978 17.625 56.6623 15.3638 56.3597 14.9352C56.057 14.5066 53.1017 16.073 49.7589 18.4337C46.416 20.7945 43.9514 23.0557 44.2541 23.4843C44.5567 23.9128 47.512 22.3465 50.8549 19.9857Z" fill="#636FB4"/>
    <path d="M68.5311 6.71669C73.3099 3.32559 77.0595 0.401295 76.9061 0.1851C76.7527 -0.0310949 72.7544 2.54268 67.9755 5.93378C63.1967 9.32488 59.4471 12.2492 59.6005 12.4654C59.754 12.6816 63.7523 10.1078 68.5311 6.71669Z" stroke="#636FB4" stroke-width="0.3" stroke-miterlimit="10"/>
    <path d="M74.75 6.67C74.69 5.19 74.29 3.99 73.56 3.04C72.18 4.09 70.47 5.34 68.6 6.67C67.8 7.24 67.02 7.77999 66.28 8.29C66.27 8.5 66.24 8.72 66.2 8.96C66.06 9.89999 65.77 11.05 65.35 12.4C64.93 13.78 64.5 14.93 64.07 15.86C63.64 16.79 63.14 17.54 62.58 18.11C62.02 18.68 61.37 19.09 60.63 19.34C59.89 19.59 59.03 19.72 58.03 19.72C57.03 19.72 56.2 19.59 55.64 19.34C55.07 19.09 54.69 18.68 54.48 18.11C54.27 17.54 54.24 16.79 54.38 15.86C54.52 14.93 54.81 13.78 55.23 12.4C55.65 11.04 56.07 9.89999 56.51 8.96C56.94 8.02 57.44 7.27 58.01 6.69C58.57 6.12 59.21 5.71 59.93 5.46C60.65 5.21 61.53 5.08 62.55 5.08C63.57 5.08 64.34 5.21 64.92 5.46C65.5 5.71 65.9 6.12 66.11 6.69C66.16 6.84 66.21 7 66.24 7.18C66.78 6.79 67.34 6.39 67.91 5.98C69.8 4.64 71.57 3.42 73.04 2.45C72.26 1.7 71.21 1.13 69.89 0.769995C68.34 0.329995 66.4 0.119995 64.09 0.119995C61.78 0.119995 59.71 0.339995 57.88 0.769995C56.06 1.21 54.44 1.91 53.03 2.88C51.62 3.85 50.4 5.11 49.38 6.67C48.35 8.23 47.49 10.14 46.79 12.41C46.09 14.68 45.77 16.59 45.84 18.15C45.91 19.71 46.34 20.97 47.15 21.94C47.96 22.91 49.14 23.61 50.7 24.05C52.25 24.49 54.19 24.7 56.5 24.7C58.81 24.7 60.88 24.48 62.71 24.05C64.53 23.61 66.15 22.91 67.56 21.94C68.97 20.97 70.19 19.71 71.21 18.15C72.24 16.59 73.1 14.68 73.8 12.41C74.5 10.14 74.82 8.23 74.75 6.67Z" fill="#636FB4"/>
    <path d="M86.4199 9L89.1999 0H80.7599L73.1099 24.81H81.5499L84.8899 13.97H88.3599L90.8599 9H86.4199Z" fill="#636FB4"/>
    <path d="M15.52 0.29L15.17 1.42H24.29L24.64 0.29H33.08L29.71 11.21H21.27L21.55 10.31C20.43 10.6 19.24 10.82 17.99 10.98C16.74 11.14 15.35 11.21 13.84 11.21H3.71L7.08 0.29H15.52ZM38.97 20.27H9.84L9.6 21.05H11.77C16.3 21.05 20.9 21.03 25.56 20.98C30.22 20.93 34.82 20.84 39.37 20.7L38.64 24.48C34.06 24.62 29.42 24.7 24.72 24.74C20.01 24.78 15.31 24.8 10.62 24.8H0L2.54 16.58H31.68L31.91 15.82H2.77L3.91 12.13H41.49L38.98 20.26L38.97 20.27ZM15.11 7.09C16.52 7.09 17.87 7 19.15 6.83C20.43 6.66 21.67 6.37 22.89 5.96L22.98 5.67H13.86L13.42 7.09H15.11ZM33.33 11.21L36.79 0H45.23L44.29 3.05H48.73L46.23 8.02H42.76L41.77 11.22H33.33V11.21Z" fill="#636FB4"/>
    <path d="M105.57 14.96L104.65 16.94H94.4999L93.8899 19.07H94.6799C95.6099 19.07 96.4699 19.07 97.2499 19.05C98.0299 19.04 98.7899 19.02 99.5399 18.99C100.29 18.96 101.06 18.93 101.85 18.89C102.64 18.85 103.5 18.8 104.44 18.73L104.25 20.68C103.16 20.76 102.18 20.83 101.3 20.88C100.42 20.93 99.5599 20.97 98.7099 21L98.2699 22.53H104.7L103.78 24.51H88.3799L88.9499 22.53H95.2099L95.6299 21.06H90.2499L91.9899 14.97H105.55L105.57 14.96Z" fill="#636FB4"/>
    <path d="M105.83 22.6L106.4 20.62H120.05L118.9 24.63H115.83L116.41 22.6H105.83ZM111.08 20.11C109.4 20.11 108.22 19.89 107.55 19.46C106.88 19.03 106.68 18.34 106.95 17.39C107.22 16.44 107.82 15.75 108.73 15.32C109.65 14.89 110.95 14.67 112.63 14.67C114.31 14.67 115.49 14.89 116.16 15.32C116.83 15.75 117.03 16.44 116.76 17.39C116.49 18.34 115.89 19.03 114.98 19.46C114.06 19.89 112.76 20.11 111.08 20.11ZM111.65 18.13C112.36 18.13 112.87 18.07 113.16 17.94C113.45 17.81 113.63 17.63 113.7 17.39C113.77 17.15 113.7 16.97 113.47 16.84C113.25 16.71 112.78 16.65 112.07 16.65C111.36 16.65 110.85 16.71 110.56 16.84C110.27 16.97 110.09 17.15 110.02 17.39C109.95 17.63 110.02 17.81 110.25 17.94C110.47 18.07 110.94 18.13 111.65 18.13ZM117.12 20.13L118.66 14.73H121.73L121.6 15.19H123.12L122.22 17.11H121.05L120.89 17.68H122.5L121.6 19.6H120.34L120.19 20.12H117.12V20.13Z" fill="#636FB4"/>
    <path d="M132.12 24.14C131.25 24.22 130.4 24.28 129.58 24.33C128.76 24.38 127.94 24.41 127.1 24.44C126.27 24.47 125.42 24.49 124.54 24.5C123.67 24.51 122.74 24.52 121.78 24.52H120.69L120.99 22.54H122.02C123.01 22.54 123.95 22.54 124.82 22.52C125.69 22.51 126.54 22.49 127.37 22.46C128.2 22.43 129.02 22.39 129.85 22.34C130.68 22.29 131.53 22.24 132.41 22.18L132.11 24.15L132.12 24.14ZM127.12 21.22C125.58 21.22 124.46 20.96 123.78 20.44C123.09 19.92 122.91 19.11 123.22 18C123.54 16.9 124.19 16.08 125.17 15.56C126.15 15.04 127.42 14.78 128.96 14.78C130.5 14.78 131.62 15.04 132.3 15.56C132.99 16.08 133.17 16.89 132.86 18C132.54 19.1 131.89 19.92 130.91 20.44C129.93 20.96 128.66 21.22 127.12 21.22ZM127.69 19.24C128.3 19.24 128.77 19.13 129.11 18.92C129.45 18.7 129.68 18.4 129.79 18C129.9 17.61 129.85 17.3 129.63 17.09C129.41 16.87 129 16.77 128.39 16.77C127.78 16.77 127.31 16.88 126.97 17.09C126.63 17.31 126.4 17.61 126.29 18C126.18 18.39 126.23 18.7 126.45 18.92C126.67 19.14 127.08 19.24 127.69 19.24ZM132.37 24.63L135.2 14.74H138.27L135.44 24.63H132.37Z" fill="#636FB4"/>
    <path d="M145.31 21.66L145.03 22.64H145.82C146.75 22.64 147.62 22.64 148.42 22.62C149.22 22.61 150 22.59 150.78 22.56C151.55 22.53 152.34 22.5 153.15 22.46C153.96 22.42 154.83 22.37 155.77 22.3L155.58 24.25C154.58 24.32 153.65 24.38 152.8 24.43C151.95 24.48 151.12 24.52 150.31 24.55C149.5 24.58 148.69 24.6 147.88 24.61C147.06 24.62 146.19 24.63 145.26 24.63H141.41L142.26 21.66H145.33H145.31ZM147.48 22.15L147.79 21.06H141.53L142.04 19.28H157.79L156.93 21.06H150.85L150.54 22.15H147.47H147.48ZM152.33 14.68L151.97 15.93C151.95 16 151.93 16.07 151.9 16.13C151.88 16.2 151.85 16.26 151.82 16.32C151.96 16.32 152.1 16.31 152.24 16.3C152.38 16.3 152.51 16.3 152.64 16.3C153.64 16.3 154.47 16.34 155.11 16.42C155.75 16.5 156.25 16.62 156.61 16.76C156.97 16.91 157.2 17.08 157.31 17.27C157.42 17.46 157.44 17.67 157.38 17.88C157.27 18.27 156.89 18.56 156.26 18.74C155.62 18.92 154.75 19.01 153.64 19.01C153.59 18.82 153.52 18.65 153.44 18.5C153.36 18.35 153.23 18.22 153.04 18.09C152.85 17.97 152.6 17.85 152.27 17.75C151.94 17.65 151.51 17.54 150.97 17.42C150.33 17.95 149.4 18.33 148.18 18.56C146.96 18.78 145.45 18.9 143.62 18.9L143.35 16.9H143.91C145.57 16.9 146.79 16.81 147.59 16.63C148.38 16.45 148.83 16.2 148.92 15.88L149.2 14.91L152.33 14.68Z" fill="#636FB4"/>
    <path d="M161.47 21.08L161.02 22.64H161.81C162.74 22.64 163.6 22.64 164.38 22.62C165.16 22.61 165.92 22.59 166.67 22.56C167.42 22.53 168.19 22.5 168.98 22.46C169.77 22.42 170.63 22.37 171.57 22.3L171.38 24.25C170.38 24.32 169.46 24.38 168.63 24.43C167.8 24.48 166.99 24.52 166.21 24.55C165.43 24.58 164.63 24.6 163.84 24.61C163.05 24.62 162.18 24.63 161.24 24.63H157.39L158.4 21.09H161.47V21.08ZM160.27 14.85H169.45L168.71 17.42C168.58 17.86 168.3 18.27 167.85 18.64C167.4 19.01 166.77 19.34 165.95 19.62C165.13 19.9 164.13 20.14 162.94 20.32C161.75 20.51 160.36 20.62 158.76 20.68V18.79C159.77 18.76 160.69 18.7 161.53 18.6C162.36 18.5 163.08 18.38 163.68 18.24C164.28 18.1 164.76 17.94 165.11 17.76C165.46 17.58 165.66 17.39 165.72 17.19L165.82 16.83H159.7L160.27 14.85ZM168.77 21.85L170.8 14.74H173.87L173.19 17.12H174.8L173.88 19.1H172.62L171.83 21.86H168.76L168.77 21.85Z" fill="#636FB4"/>
  </g>
  <defs>
    <clipPath id="clip0_1024_26167">
      <rect width="174.8" height="24.81" fill="white"/>
    </clipPath>
  </defs>
</svg>