<svg width="24" height="24" viewBox="0 0 24 24" fill="none" xmlns="http://www.w3.org/2000/svg">
<g clip-path="url(#clip0_1842_5301)">
<path d="M19 0H5C3.67441 0.00158786 2.40356 0.528882 1.46622 1.46622C0.528882 2.40356 0.00158786 3.67441 0 5L0 19C0.00158786 20.3256 0.528882 21.5964 1.46622 22.5338C2.40356 23.4711 3.67441 23.9984 5 24H19C20.3256 23.9984 21.5964 23.4711 22.5338 22.5338C23.4711 21.5964 23.9984 20.3256 24 19V5C23.9984 3.67441 23.4711 2.40356 22.5338 1.46622C21.5964 0.528882 20.3256 0.00158786 19 0V0ZM22 19C22 19.7956 21.6839 20.5587 21.1213 21.1213C20.5587 21.6839 19.7956 22 19 22H5C4.20435 22 3.44129 21.6839 2.87868 21.1213C2.31607 20.5587 2 19.7956 2 19V5C2 4.20435 2.31607 3.44129 2.87868 2.87868C3.44129 2.31607 4.20435 2 5 2H19C19.7956 2 20.5587 2.31607 21.1213 2.87868C21.6839 3.44129 22 4.20435 22 5V19Z" fill="#222222"/>
</g>
<path d="M12 5.87512C10.7886 5.87512 9.60439 6.23435 8.59714 6.90737C7.58988 7.58039 6.80483 8.53699 6.34124 9.65619C5.87765 10.7754 5.75636 12.0069 5.99269 13.1951C6.22903 14.3832 6.81238 15.4746 7.66897 16.3312C8.52557 17.1877 9.61694 17.7711 10.8051 18.0074C11.9932 18.2438 13.2247 18.1225 14.3439 17.6589C15.4631 17.1953 16.4197 16.4102 17.0928 15.403C17.7658 14.3957 18.125 13.2115 18.125 12.0001C18.125 10.3757 17.4797 8.81775 16.331 7.66909C15.1824 6.52043 13.6245 5.87512 12 5.87512ZM12 16.3751C11.1347 16.3751 10.2888 16.1185 9.56938 15.6378C8.84992 15.1571 8.28916 14.4738 7.95803 13.6744C7.6269 12.8749 7.54026 11.9953 7.70907 11.1466C7.87788 10.2979 8.29456 9.51838 8.90641 8.90653C9.51827 8.29468 10.2978 7.878 11.1465 7.70919C11.9952 7.54038 12.8748 7.62702 13.6742 7.95815C14.4737 8.28928 15.157 8.85004 15.6377 9.5695C16.1184 10.289 16.375 11.1348 16.375 12.0001C16.375 13.1604 15.9141 14.2732 15.0936 15.0937C14.2731 15.9142 13.1603 16.3751 12 16.3751Z" fill="#222222"/>
<defs>
<clipPath id="clip0_1842_5301">
<rect width="24" height="24" fill="white"/>
</clipPath>
</defs>
</svg>
