<svg width="24" height="24" viewBox="0 0 24 24" fill="none" xmlns="http://www.w3.org/2000/svg">
<g id="fi-rr-link" clip-path="url(#clip0_1124_5184)">
<path id="Vector" d="M13.8443 17.2669L10.5823 20.5289C9.63521 21.4507 8.3633 21.9625 7.04174 21.9537C5.72018 21.9448 4.45524 21.416 3.5206 20.4816C2.58596 19.5472 2.05678 18.2825 2.04755 16.9609C2.03833 15.6393 2.54979 14.3673 3.47129 13.4199L6.73329 10.155C6.9208 9.96731 7.02608 9.71287 7.02599 9.4476C7.0259 9.18233 6.92043 8.92796 6.73279 8.74046C6.54515 8.55295 6.29071 8.44766 6.02544 8.44775C5.76017 8.44785 5.5058 8.55332 5.31829 8.74096L2.05729 12.0059C0.73956 13.3243 -0.000468632 15.1122 2.22651e-07 16.9762C0.000469078 18.8402 0.741397 20.6277 2.05979 21.9454C3.37818 23.2632 5.16604 24.0032 7.03006 24.0027C8.89407 24.0022 10.6816 23.2613 11.9993 21.9429L15.2613 18.6809C15.4434 18.4923 15.5442 18.2397 15.542 17.9775C15.5397 17.7153 15.4345 17.4645 15.2491 17.2791C15.0637 17.0937 14.8129 16.9885 14.5507 16.9863C14.2885 16.984 14.0359 17.0848 13.8473 17.2669H13.8443Z" fill="#222222"/>
<path id="Vector_2" d="M21.9445 2.06139C21.2938 1.40621 20.5195 0.88667 19.6665 0.532887C18.8136 0.179104 17.8989 -0.00189024 16.9755 0.000390852C16.0525 -0.00206088 15.1383 0.178469 14.2855 0.531542C13.4328 0.884615 12.6585 1.40323 12.0075 2.05739L8.74047 5.32039C8.55283 5.5079 8.44736 5.76227 8.44727 6.02754C8.44717 6.29281 8.55246 6.54725 8.73997 6.73489C8.92748 6.92253 9.18184 7.028 9.44712 7.02809C9.71239 7.02819 9.96683 6.9229 10.1545 6.73539L13.4195 3.47339C13.885 3.00504 14.4389 2.63369 15.0489 2.38085C15.659 2.12801 16.3131 1.99869 16.9735 2.00039C17.9677 2.00072 18.9396 2.29582 19.7662 2.84839C20.5927 3.40096 21.2369 4.18619 21.6173 5.10481C21.9977 6.02344 22.0972 7.03421 21.9032 8.00937C21.7092 8.98452 21.2305 9.88028 20.5275 10.5834L17.2655 13.8454C17.0778 14.033 16.9724 14.2875 16.9724 14.5529C16.9724 14.8183 17.0778 15.0728 17.2655 15.2604C17.4531 15.448 17.7076 15.5534 17.973 15.5534C18.2383 15.5534 18.4928 15.448 18.6805 15.2604L21.9425 12.0004C23.2585 10.6815 23.9978 8.8945 23.9982 7.03131C23.9985 5.16812 23.26 3.38082 21.9445 2.06139Z" fill="#222222"/>
<path id="Vector_3" d="M14.2936 8.29316L8.29357 14.2932C8.19806 14.3854 8.12188 14.4957 8.06947 14.6177C8.01706 14.7397 7.98947 14.871 7.98832 15.0037C7.98717 15.1365 8.01247 15.2682 8.06275 15.3911C8.11303 15.514 8.18728 15.6256 8.28117 15.7195C8.37507 15.8134 8.48672 15.8877 8.60962 15.938C8.73251 15.9882 8.86419 16.0136 8.99697 16.0124C9.12975 16.0112 9.26097 15.9837 9.38297 15.9312C9.50498 15.8788 9.61532 15.8027 9.70757 15.7071L15.7076 9.70716C15.8897 9.51856 15.9905 9.26596 15.9882 9.00376C15.986 8.74156 15.8808 8.49075 15.6954 8.30534C15.51 8.11994 15.2592 8.01477 14.997 8.01249C14.7348 8.01021 14.4822 8.111 14.2936 8.29316Z" fill="#222222"/>
</g>
<defs>
<clipPath id="clip0_1124_5184">
<rect width="24" height="24" fill="white"/>
</clipPath>
</defs>
</svg>
