<?xml version="1.0" standalone="no"?>
<!DOCTYPE svg PUBLIC "-//W3C//DTD SVG 20010904//EN"
 "http://www.w3.org/TR/2001/REC-SVG-20010904/DTD/svg10.dtd">
<svg version="1.0" xmlns="http://www.w3.org/2000/svg"
 width="473.000000pt" height="473.000000pt" viewBox="0 0 473.000000 473.000000"
 preserveAspectRatio="xMidYMid meet">
<metadata>
Created by potrace 1.14, written by Peter Selinger 2001-2017
</metadata>
<g transform="translate(0.000000,473.000000) scale(0.100000,-0.100000)"
fill="#000000" stroke="none">
<path d="M2119 3212 c-9 -2 -35 -70 -73 -195 -33 -106 -65 -211 -72 -234 l-13
-42 177 2 176 2 14 40 c30 85 35 95 46 94 6 -1 38 -1 71 0 l60 1 48 93 c26 52
47 98 47 103 0 6 -38 9 -85 9 -96 -1 -97 -1 -70 75 8 24 13 45 10 48 -5 5
-312 9 -336 4z"/>
<path d="M3954 3212 c-15 -2 -24 -14 -31 -45 -6 -23 -41 -139 -77 -257 -135
-431 -158 -507 -191 -615 -18 -60 -32 -111 -30 -113 3 -3 234 -5 320 -3 l30 1
69 224 70 224 60 0 c34 0 67 0 73 1 11 1 113 188 113 206 0 3 -41 5 -91 5 -69
0 -90 3 -86 13 20 53 106 351 102 355 -5 5 -297 9 -331 4z"/>
<path d="M3055 3195 c-144 -22 -289 -95 -368 -184 -136 -154 -236 -481 -192
-628 l13 -41 -44 -43 c-71 -69 -57 -87 34 -44 l52 24 43 -28 c75 -50 192 -71
367 -66 173 5 248 20 360 72 108 51 202 149 264 274 95 192 127 378 88 494
l-21 60 32 25 c61 47 102 88 95 95 -8 8 -34 -5 -107 -53 -48 -32 -55 -34 -75
-22 -39 25 -91 47 -141 60 -69 17 -303 20 -400 5z m685 -19 c0 -16 -416 -316
-597 -430 -167 -104 195 166 462 346 132 89 135 91 135 84z m-459 -196 c24
-11 58 -56 48 -63 -2 -1 -51 -38 -109 -81 -121 -90 -171 -136 -164 -147 5 -9
43 12 174 98 71 47 96 59 98 47 5 -22 -53 -213 -85 -281 -56 -117 -141 -167
-271 -159 -69 5 -107 24 -124 61 -10 22 -6 30 38 77 45 48 47 53 27 56 -12 2
-31 -2 -42 -8 -28 -15 -28 2 5 109 53 174 119 270 204 295 53 17 164 14 201
-4z"/>
<path d="M865 3188 c-6 -15 -15 -45 -84 -270 -28 -92 -51 -170 -51 -173 0 -3
120 -4 266 -3 238 1 389 12 454 33 19 6 21 4 15 -14 -6 -21 -6 -21 171 -19
l178 3 44 140 c67 213 83 268 89 293 l5 22 -176 0 c-176 0 -177 0 -185 -23 -9
-24 -10 -24 -195 -24 l-186 0 6 23 6 24 -176 0 c-132 0 -178 -3 -181 -12z
m655 -219 c0 -7 -64 -26 -133 -38 -52 -9 -247 -15 -247 -7 0 2 4 15 9 28 9 23
10 23 190 23 99 0 181 -3 181 -6z"/>
<path d="M735 2700 c-6 -10 -45 -133 -45 -142 0 -5 273 -8 606 -8 480 0 605
-3 602 -12 -4 -10 -135 -13 -607 -15 -331 0 -605 -4 -609 -8 -4 -3 -30 -80
-58 -171 -49 -158 -50 -164 -30 -165 65 -2 1310 3 1406 6 63 2 131 4 151 4 39
1 41 3 56 106 2 17 6 36 8 43 4 10 -42 11 -223 7 -125 -4 -402 -7 -617 -8
-340 -2 -390 0 -390 13 0 13 75 15 602 15 388 0 605 4 611 10 9 9 102 307 102
325 0 11 -1559 10 -1565 0z"/>
<path d="M1297 1965 c-72 -14 -108 -41 -126 -92 -31 -88 16 -126 156 -125 112
0 178 17 214 55 31 32 45 82 34 117 -15 47 -155 70 -278 45z m138 -89 c18 -13
17 -14 -6 -29 -46 -29 -152 -13 -131 19 17 26 107 32 137 10z"/>
<path d="M1670 1970 c-20 -5 -27 -20 -51 -110 -15 -57 -25 -107 -23 -110 12
-11 115 -6 125 7 7 7 21 13 33 13 16 0 29 12 44 40 l21 40 -35 0 c-18 0 -34 5
-34 10 0 6 12 10 28 10 22 0 30 7 44 40 15 37 15 40 0 41 -9 1 -21 1 -26 0 -5
-1 -12 3 -16 9 -8 12 -75 18 -110 10z"/>
<path d="M2282 1768 c-57 -200 -59 -208 -38 -209 11 0 41 -1 64 -2 48 -3 49
-2 56 34 2 13 12 48 21 78 9 30 18 62 20 70 2 9 18 63 34 120 17 58 29 107 26
109 -2 3 -31 5 -64 6 l-59 1 -60 -207z"/>
<path d="M2990 1972 c-55 -6 -68 -13 -74 -36 -8 -34 -36 -43 -156 -52 -41 -3
-76 -7 -78 -9 -3 -2 0 -21 5 -42 l9 -38 69 4 c118 5 162 14 209 40 26 14 38
15 69 6 22 -6 47 -22 57 -35 16 -21 23 -22 70 -17 61 7 100 29 100 57 0 37
-67 55 -213 59 -14 1 -17 6 -12 24 4 12 8 26 9 31 1 9 -25 13 -64 8z"/>
<path d="M3839 1972 c-13 -2 -47 -104 -96 -283 -4 -13 7 -16 61 -17 l66 -1 17
60 c15 55 19 60 40 56 20 -4 28 3 43 34 26 49 26 49 -11 49 -28 0 -31 3 -25
23 14 47 17 77 7 78 -30 3 -89 4 -102 1z"/>
<path d="M568 1962 c-25 -3 -30 -10 -47 -70 -43 -148 -50 -176 -46 -180 2 -2
52 -4 110 -5 l106 0 -6 -26 c-4 -14 -8 -27 -10 -29 -2 -2 -62 -4 -133 -5
l-130 -1 -9 -42 -10 -42 319 0 c317 -1 318 -1 332 21 8 12 17 32 20 43 6 21 4
21 -119 22 -70 0 -128 2 -131 5 -3 2 -2 16 2 31 5 23 11 26 48 27 66 1 170 9
184 14 9 3 12 18 10 42 -2 31 -7 38 -23 36 -11 -1 -107 -5 -212 -7 -210 -6
-203 -8 -182 52 l10 30 172 0 c270 0 249 -3 269 39 10 20 16 39 13 41 -5 5
-497 8 -537 4z"/>
<path d="M1955 1949 c-73 -28 -112 -73 -116 -136 -6 -78 36 -106 161 -109 153
-4 237 49 248 155 3 40 1 52 -16 69 -45 45 -187 55 -277 21z m136 -68 c43 -2
27 -73 -20 -89 -32 -11 -80 -7 -95 8 -5 5 -6 20 -2 35 7 27 55 55 85 50 9 -2
23 -4 32 -4z"/>
<path d="M3380 1945 c-23 -61 -26 -60 103 -61 65 -1 121 -4 124 -8 23 -23 -92
-60 -222 -70 -33 -3 -61 -5 -62 -5 -6 -2 -2 -57 5 -68 14 -22 209 1 307 38 64
24 100 61 115 119 6 25 13 52 16 61 4 15 -15 16 -187 16 -188 0 -191 0 -199
-22z"/>
<path d="M2630 1780 c-4 -3 -11 -20 -15 -37 -5 -24 -3 -33 7 -34 7 0 64 -1
127 -1 l113 0 -5 -24 c-4 -23 -3 -24 64 -24 63 0 68 2 71 23 3 21 6 22 128 23
l125 1 17 29 c10 16 17 33 15 37 -2 8 -634 15 -647 7z"/>
<path d="M1132 1695 c-7 -17 -12 -36 -12 -42 0 -7 60 -11 183 -11 100 -1 199
-1 219 -1 l37 -1 -14 -39 -14 -40 32 -3 c18 -2 48 -1 68 0 36 4 36 4 58 82 11
42 21 80 21 83 0 2 -128 5 -283 4 l-284 0 -11 -32z"/>
<path d="M3306 1702 c-5 -9 -36 -127 -36 -138 0 -13 565 -2 578 11 3 2 6 22 8
43 l3 38 -62 -3 c-34 -2 -132 -5 -217 -6 -150 -2 -155 -1 -152 18 2 11 5 24 5
30 2 11 -120 18 -127 7z"/>
<path d="M2635 1680 c-9 -15 -34 -114 -30 -118 11 -11 571 1 583 12 2 3 6 22
9 44 l5 41 -43 -4 c-24 -3 -124 -7 -221 -9 l-178 -5 0 22 c0 20 -5 22 -61 22
-33 0 -62 -2 -64 -5z"/>
<path d="M2046 1653 c-1 -2 -68 -3 -148 -4 -160 -2 -157 -1 -158 -67 l0 -24
208 6 c178 6 262 11 268 19 1 1 4 19 8 40 l7 38 -91 -3 c-51 -2 -93 -4 -94 -5z"/>
</g>
</svg>
