<svg xmlns="http://www.w3.org/2000/svg" width="90" height="24" viewBox="0 0 90 24" fill="none">
  <path d="M0 2.44718V4.43726H2.19272H4.38544V2.44718V0.457112H2.19272H0V2.44718Z" fill="black"/>
  <path d="M19.2388 4.45149V8.3037L18.6022 7.63561C17.3573 6.35627 15.4475 5.8019 13.4811 6.12884C12.1089 6.37049 11.147 6.86801 10.1143 7.86304C8.40253 9.51196 7.58203 11.8716 7.58203 15.0984C7.59618 17.8134 8.23277 19.7324 9.67572 21.3102C11.0904 22.8739 12.4202 23.4851 14.429 23.4851C16.4802 23.4851 17.8524 22.8739 18.9417 21.495L19.5217 20.7559V21.9073V23.0729L21.6154 23.0302L23.695 22.9876L23.7374 11.7863L23.7657 0.599279H21.5023H19.2388V4.45149ZM17.2583 10.2369C18.0646 10.6491 18.8144 11.5873 19.1115 12.5113C19.1964 12.7956 19.3095 13.7053 19.3378 14.5298C19.4227 16.2071 19.2105 17.259 18.6305 18.2683C17.3149 20.5142 13.8631 20.4147 12.7172 18.1119C11.5714 15.7807 11.9109 12.0848 13.4246 10.6349C14.3299 9.75361 16.0275 9.58303 17.2583 10.2369Z" fill="black"/>
  <path d="M46.1182 3.44464V6.2876H46.7548H47.3914V3.44464V0.601677H46.7548H46.1182V3.44464Z" fill="black"/>
  <path d="M78.9375 3.44464V6.2876H79.5034H80.0692V3.44464V0.601677H79.5034H78.9375V3.44464Z" fill="black"/>
  <path d="M55.7374 1.69486C55.7374 2.57618 55.7232 2.61882 55.4969 2.41982C55.1008 2.07866 54.6481 1.99337 54.1105 2.16395C52.9788 2.53354 52.4554 4.05452 53.0212 5.33385C53.4739 6.37153 54.5915 6.75533 55.3695 6.12988C55.6666 5.88823 55.7374 5.87401 55.7374 6.05881C55.7374 6.22938 55.8788 6.28624 56.3032 6.28624H56.8691V3.51436V0.742471H56.3032H55.7374V1.69486ZM55.2564 3.13056C55.8222 3.51436 55.9071 4.7084 55.3837 5.22013C54.9734 5.64658 54.7471 5.66079 54.3086 5.30542C53.87 4.95005 53.8276 3.77022 54.2378 3.31535C54.5066 3.01684 54.9593 2.93155 55.2564 3.13056Z" fill="black"/>
  <path d="M72.4587 1.19453C72.5011 1.62097 72.5436 1.66362 73.0387 1.70626C73.548 1.74891 73.5621 1.74891 73.5621 1.25139C73.5621 0.753869 73.548 0.739654 72.9821 0.739654C72.4304 0.739654 72.4162 0.753869 72.4587 1.19453Z" fill="black"/>
  <path d="M67.0546 1.59699C67.0546 2.06608 67.0122 2.16558 66.7717 2.16558C66.5454 2.16558 66.4888 2.26508 66.4888 2.59202C66.4888 2.91897 66.5454 3.01847 66.7717 3.01847C67.0405 3.01847 67.0546 3.11797 67.0546 4.49681C67.0546 5.50606 67.1112 6.01779 67.2385 6.10308C67.4932 6.3163 68.0873 6.43002 68.441 6.33052C68.8795 6.2168 68.8795 5.61978 68.441 5.5487C68.1298 5.50606 68.1156 5.43499 68.0732 4.25516L68.0307 3.01847H68.3986C68.6956 3.01847 68.7522 2.94739 68.7522 2.59202C68.7522 2.23665 68.6956 2.16558 68.3986 2.16558C68.0873 2.16558 68.0449 2.10872 68.0449 1.59699C68.0449 1.04261 68.0307 1.0284 67.5498 1.0284C67.0688 1.0284 67.0546 1.04261 67.0546 1.59699Z" fill="black"/>
  <path d="M50.0794 2.17952C49.8814 2.25059 49.6409 2.42117 49.556 2.54911C49.3862 2.76233 49.3721 2.76233 49.3721 2.47803C49.3721 2.22217 49.2872 2.16531 48.877 2.16531H48.3818V4.22645V6.2876H48.877H49.3721V5.0367C49.3721 3.58679 49.556 3.10348 50.1219 3.04662C50.8292 2.96133 50.9282 3.18877 50.9282 4.80926V6.2876H51.4941H52.0599V4.63868C52.0599 3.74315 51.9892 2.87605 51.9043 2.70547C51.7629 2.43539 50.9707 2.00894 50.617 2.03737C50.518 2.03737 50.2775 2.10845 50.0794 2.17952Z" fill="black"/>
  <path d="M63.2773 2.23427C62.6407 2.50435 62.3294 3.04451 62.4426 3.65575C62.5558 4.22434 62.7821 4.38071 63.9987 4.70765C64.6919 4.89244 64.8617 4.99194 64.8617 5.21938C64.8617 5.44682 64.7485 5.51789 64.2675 5.54632C63.7865 5.57475 63.6309 5.53211 63.4895 5.30467C63.3621 5.09145 63.1641 5.00616 62.7821 5.00616C62.188 5.00616 62.188 4.99194 62.386 5.48946C62.8246 6.65507 65.3992 6.75458 65.9085 5.63161C66.3046 4.73608 65.8519 4.11062 64.508 3.75525C63.7724 3.55625 63.5885 3.45674 63.5885 3.22931C63.5885 2.80286 64.4231 2.746 64.6778 3.14402C64.8051 3.35724 65.0031 3.44253 65.3851 3.44253C65.9793 3.44253 66.05 3.27195 65.6963 2.746C65.2295 2.09212 64.1402 1.85047 63.2773 2.23427Z" fill="black"/>
  <path d="M71.2985 2.12266C71.1854 2.16531 70.9449 2.33588 70.7751 2.49225L70.4497 2.77654V2.47803C70.4497 2.22216 70.3649 2.16531 69.9546 2.16531H69.4595V4.22645V6.2876H69.9405H70.4214L70.478 5.02248C70.5205 3.58679 70.761 3.16034 71.4683 3.16034C71.8644 3.16034 71.8785 3.13191 71.8361 2.63439C71.7937 2.10845 71.6663 1.99473 71.2985 2.12266Z" fill="black"/>
  <path d="M75.4011 2.20712C75.0616 2.32084 74.8211 2.53406 74.6513 2.87521L74.4108 3.37273L74.9342 3.41538C75.2455 3.44381 75.486 3.40116 75.5142 3.30166C75.5991 3.07422 76.165 2.87521 76.5187 2.97472C76.7309 3.03158 76.8157 3.14529 76.7874 3.35852C76.7591 3.60017 76.5894 3.68546 75.9669 3.81339C74.8918 4.04083 74.7079 4.12612 74.4815 4.5952C74.1703 5.19223 74.2269 5.5476 74.6796 6.01668C75.1747 6.5142 75.8255 6.55685 76.5045 6.14462C76.8723 5.91718 76.9572 5.90297 76.9572 6.07354C76.9572 6.22991 77.127 6.28677 77.6221 6.28677C78.1455 6.28677 78.2445 6.24412 78.1172 6.11619C78.004 6.00247 77.9475 5.41966 77.9475 4.42463C77.9475 2.67621 77.806 2.3777 76.8865 2.16447C76.165 1.9939 76.0094 1.9939 75.4011 2.20712ZM76.6601 5.37702C76.4338 5.66131 75.5567 5.63288 75.4435 5.34859C75.302 4.979 75.585 4.66628 76.1933 4.4957C76.745 4.33934 76.745 4.33934 76.7874 4.75157C76.8157 4.979 76.7591 5.2633 76.6601 5.37702Z" fill="black"/>
  <path d="M57.7183 3.54356C57.7183 5.43413 57.8739 5.96007 58.5246 6.24437C59.1046 6.48602 59.7554 6.40073 60.1515 6.04536C60.392 5.83214 60.4061 5.83214 60.4061 6.04536C60.4061 6.23016 60.5334 6.28702 60.972 6.28702H61.5378V4.22587V2.16472H60.972H60.4061V3.55777C60.4061 5.09297 60.2505 5.43413 59.5432 5.43413C58.9349 5.43413 58.85 5.19248 58.85 3.62885V2.16472H58.2841H57.7183V3.54356Z" fill="black"/>
  <path d="M72.4302 4.22645V6.2876H72.996H73.5619V4.22645V2.16531H72.996H72.4302V4.22645Z" fill="black"/>
  <path d="M32.0561 6.22934C30.4151 6.62736 28.7317 7.79297 27.8263 9.15759C26.4824 11.2187 25.9873 14.6587 26.6238 17.7291C26.8643 18.9232 27.699 20.4868 28.5053 21.2828C29.9907 22.7469 32.0561 23.543 34.3762 23.543C36.9225 23.5288 38.4928 22.9317 40.0489 21.3681C40.8836 20.5152 41.5343 19.4775 41.8031 18.5394L41.888 18.2266H39.6528H37.4035L36.965 18.8379C36.3708 19.6908 35.6918 20.0035 34.3762 20.0035C32.3108 19.9893 31.1225 18.8521 30.7546 16.5493L30.6556 15.9523H36.3425H42.0153V14.4881C42.0153 12.6829 41.7324 11.3325 41.1099 10.0531C39.7943 7.38074 37.4035 5.98769 34.164 6.01612C33.4708 6.01612 32.523 6.11562 32.0561 6.22934ZM35.1967 9.72618C36.3991 10.0247 37.4884 11.4604 37.4884 12.7397V13.1093H34.1498H30.8112L30.8961 12.5691C31.0517 11.7305 31.6459 10.6075 32.1693 10.2237C32.9898 9.58403 34.0084 9.42767 35.1967 9.72618Z" fill="black"/>
  <path d="M0 14.7432V23.0588H2.19272H4.38544V14.7432V6.42752H2.19272H0V14.7432Z" fill="black"/>
  <path d="M46.2588 11.2614V14.1328L47.8574 14.0902C49.3569 14.0333 49.4984 14.0049 49.9652 13.6495C50.6867 13.0951 50.9696 12.2707 50.8989 10.9203C50.8423 9.78308 50.6442 9.35664 49.8945 8.78805C49.5832 8.56061 49.2296 8.50375 47.8856 8.44689L46.2588 8.37582V11.2614ZM49.3852 9.7973C49.7954 10.2095 49.9086 11.6026 49.5974 12.2849C49.3144 12.8819 48.8759 13.1093 48.0271 13.1093H47.3905V11.2472V9.38507L48.2393 9.44193C48.8618 9.48457 49.1871 9.58408 49.3852 9.7973Z" fill="black"/>
  <path d="M60.4058 8.91581C60.4058 9.39912 60.4199 9.41333 60.9716 9.41333C61.5233 9.41333 61.5375 9.39912 61.5375 8.91581C61.5375 8.43251 61.5233 8.41829 60.9716 8.41829C60.4199 8.41829 60.4058 8.43251 60.4058 8.91581Z" fill="black"/>
  <path d="M52.3854 10.1228C51.7771 10.4924 51.4941 11.0894 51.4941 12.0418C51.4941 13.1079 51.7912 13.6339 52.5693 13.9892C53.4322 14.373 54.2244 14.2309 54.8469 13.6054C55.1015 13.3496 55.3137 13.0653 55.3137 12.98C55.3137 12.7099 54.3376 12.8094 53.9132 13.1079C53.602 13.3496 53.4605 13.378 53.1493 13.2643C52.7815 13.1221 52.442 12.5962 52.5834 12.3545C52.6117 12.2977 53.2483 12.255 53.9839 12.255H55.3137V11.7149C55.3137 10.2508 53.6444 9.341 52.3854 10.1228ZM53.8708 10.9188C54.4366 11.3169 54.2669 11.5443 53.4039 11.5443C52.8239 11.5443 52.6259 11.4874 52.6259 11.3453C52.6259 11.1179 53.1493 10.6914 53.4039 10.6914C53.4888 10.6914 53.701 10.7909 53.8708 10.9188Z" fill="black"/>
  <path d="M56.6991 10.0542C56.2039 10.3243 56.02 10.6796 56.02 11.3193C56.02 11.9305 56.303 12.1437 57.4913 12.4565C58.3684 12.6839 58.6513 12.9113 58.3967 13.2099C58.142 13.5226 57.4488 13.4231 57.0952 13.0393C56.883 12.8118 56.6142 12.6839 56.3171 12.6839C55.3269 12.6839 56.0908 13.949 57.2225 14.1623C58.4815 14.4039 59.5567 13.8069 59.5567 12.8687C59.5567 12.2006 59.0757 11.7599 58.0854 11.5325C57.2791 11.3619 56.9113 11.1061 57.081 10.836C57.2366 10.5659 58.1279 10.6654 58.3118 10.9781C58.5664 11.3761 59.4152 11.3761 59.4152 10.9924C59.4152 10.836 59.2596 10.5375 59.0898 10.3243C58.8069 9.99731 58.623 9.92624 57.9157 9.8836C57.3498 9.85517 56.9537 9.91203 56.6991 10.0542Z" fill="black"/>
  <path d="M63.2634 10.0081C62.4146 10.4203 62.0326 12.1971 62.5702 13.2064C63.0229 14.0735 64.1405 14.3578 64.8478 13.8034L65.2156 13.5191V13.9456C65.2156 14.7558 64.2678 15.2675 63.7444 14.7416C63.5322 14.5141 62.3863 14.4431 62.3863 14.6563C62.3863 14.969 63.0229 15.5376 63.5605 15.6798C64.381 15.893 65.5269 15.6371 65.923 15.1396C66.1776 14.8127 66.2059 14.571 66.2059 12.3819V9.97963H65.7108C65.3571 9.97963 65.2156 10.0365 65.2156 10.2071C65.2156 10.3919 65.1449 10.3776 64.8478 10.136C64.4376 9.80905 63.7868 9.76641 63.2634 10.0081ZM64.9893 11.1452C65.2864 11.5717 65.2722 12.4388 64.961 12.8226C64.6498 13.2064 64.0132 13.249 63.6878 12.9079C63.3907 12.6094 63.3624 11.4011 63.6454 11.0742C63.9283 10.7188 64.7205 10.7614 64.9893 11.1452Z" fill="black"/>
  <path d="M69.0355 9.93907C68.9223 9.98171 68.7101 10.1096 68.5828 10.2376C68.3564 10.4366 68.3282 10.4224 68.3282 10.2234C68.3282 10.0386 68.2008 9.98171 67.833 9.98171H67.3379V12.0429V14.104H67.833H68.3282V12.7536C68.3282 11.5027 68.3564 11.3605 68.6818 11.0478C69.0638 10.6498 69.2052 10.6214 69.6155 10.8346C69.856 10.9767 69.8843 11.1473 69.8843 12.5404V14.104H70.4501H71.016V12.4124C71.016 10.8488 70.9877 10.6782 70.6906 10.3371C70.3794 9.95328 69.5023 9.74006 69.0355 9.93907Z" fill="black"/>
  <path d="M60.4058 12.0429V14.104H60.9716H61.5375V12.0429V9.98171H60.9716H60.4058V12.0429Z" fill="black"/>
  <path d="M46.2588 19.0077V21.7795H48.3808H50.5028V21.282V20.7845H48.9466H47.3905V20.0738V19.363H48.7344H50.0784V18.8655V18.368H48.7344H47.3905V17.7994V17.2308H48.8759H50.3613V16.7333V16.2358H48.31H46.2588V19.0077Z" fill="black"/>
  <path d="M60.8306 16.7322C60.8306 17.2155 60.8447 17.2297 61.3964 17.2297C61.9481 17.2297 61.9623 17.2155 61.9623 16.7322C61.9623 16.2489 61.9481 16.2347 61.3964 16.2347C60.8447 16.2347 60.8306 16.2489 60.8306 16.7322Z" fill="black"/>
  <path d="M79.3623 16.7322C79.3623 17.2155 79.3765 17.2297 79.9282 17.2297C80.4799 17.2297 80.494 17.2155 80.494 16.7322C80.494 16.2489 80.4799 16.2347 79.9282 16.2347C79.3765 16.2347 79.3623 16.2489 79.3623 16.7322Z" fill="black"/>
  <path d="M51.3521 19.7184V21.7795H51.9179H52.4838V20.3865C52.4838 18.8797 52.6394 18.5101 53.3043 18.5101C53.8418 18.5101 54.0399 19.0219 54.0399 20.4576V21.7795H54.535H55.0302V20.0738C55.0302 18.4391 55.016 18.3396 54.6765 18.0126C54.2238 17.5435 53.2618 17.5151 52.7101 17.9558L52.3423 18.2401V17.9558C52.3423 17.7141 52.2574 17.6572 51.8472 17.6572H51.3521V19.7184Z" fill="black"/>
  <path d="M56.6428 17.8703C55.5818 18.6094 55.6525 21.0544 56.7418 21.6514C57.2228 21.9073 58.0999 21.8646 58.4253 21.5661C58.6941 21.3102 58.7082 21.3245 58.7082 21.6798C58.7082 22.5469 58.1423 22.9307 57.3926 22.5611C57.1662 22.4474 56.7277 22.3479 56.4165 22.3479H55.8647L56.0769 22.7602C56.3316 23.2577 56.9257 23.4851 57.916 23.4851C58.878 23.4851 59.4863 23.1013 59.6843 22.3906C59.7692 22.0921 59.8399 20.9122 59.8399 19.7466V17.657H59.3448C59.0336 17.657 58.8072 17.7423 58.7648 17.8703C58.6941 18.0551 58.6516 18.0551 58.3828 17.8703C58.0009 17.6002 57.0248 17.6002 56.6428 17.8703ZM58.4253 18.7942C58.7789 19.1496 58.8072 20.1446 58.4819 20.6137C58.2272 20.9833 57.6331 21.0259 57.2653 20.6848C56.8974 20.3579 56.9116 19.178 57.2935 18.7942C57.4492 18.6379 57.7038 18.5099 57.8594 18.5099C58.015 18.5099 58.2697 18.6379 58.4253 18.7942Z" fill="black"/>
  <path d="M60.8306 19.7042V21.7795H61.3964H61.9764L61.934 19.7468L61.8916 17.7283L61.3681 17.6857L60.8306 17.643V19.7042Z" fill="black"/>
  <path d="M62.9521 19.7184V21.7795H63.518H64.0839V20.3865C64.0839 18.8797 64.2395 18.5101 64.9044 18.5101C65.4985 18.5101 65.64 18.8513 65.64 20.3723V21.7795H66.22H66.8L66.7576 20.0596C66.701 18.3822 66.6868 18.3396 66.3049 17.9984C65.838 17.6004 64.8902 17.5293 64.4092 17.8705C64.1405 18.0553 64.098 18.0553 64.0273 17.8705C63.9848 17.7425 63.7585 17.6572 63.4473 17.6572H62.9521V19.7184Z" fill="black"/>
  <path d="M68.2429 17.9261C67.6912 18.253 67.4082 18.9495 67.4224 19.8593C67.4365 21.2239 68.1156 21.9204 69.4453 21.9204C70.0395 21.9204 70.2375 21.8493 70.6619 21.4798C70.9307 21.2381 71.1571 20.9538 71.1571 20.8401C71.1571 20.57 70.2093 20.5842 69.9405 20.8543C69.6151 21.1812 68.9502 21.1244 68.6956 20.7548C68.257 20.1293 68.3702 20.0725 69.8839 20.0725H71.2985V19.646C71.2985 19.0206 70.9732 18.3241 70.5205 17.9687C70.0112 17.5565 68.8653 17.5423 68.2429 17.9261ZM69.9405 18.8216C70.0678 18.9922 70.1668 19.1912 70.1668 19.248C70.1668 19.3191 69.7849 19.3617 69.318 19.3617C68.8512 19.3617 68.4692 19.3191 68.4692 19.248C68.4692 18.9211 68.9502 18.5089 69.318 18.5089C69.5727 18.5089 69.799 18.6226 69.9405 18.8216Z" fill="black"/>
  <path d="M72.5149 17.9555C71.9631 18.3819 71.7227 18.9647 71.7227 19.8176C71.7227 20.7416 71.9349 21.168 72.5573 21.5944C73.4061 22.163 74.7783 21.964 75.3159 21.1822C75.4432 21.0116 75.5422 20.8126 75.5422 20.7558C75.5422 20.5426 74.4529 20.6421 74.269 20.8553C74.0851 21.0827 73.4627 21.1396 73.1798 20.9548C73.0949 20.8979 72.9534 20.6705 72.8685 20.4573L72.7129 20.0735H74.1276H75.5422V19.5617C75.5422 18.8652 75.2027 18.1971 74.7076 17.8986C74.1134 17.5574 72.9958 17.5717 72.5149 17.9555ZM74.1842 18.7373C74.6227 19.1779 74.4671 19.3627 73.6324 19.3627C73.0524 19.3627 72.8544 19.3059 72.8544 19.1637C72.8544 18.851 73.2646 18.5098 73.6324 18.5098C73.8163 18.5098 74.071 18.6093 74.1842 18.7373Z" fill="black"/>
  <path d="M76.349 17.7568C76.2924 17.7994 76.25 18.7376 76.25 19.8179V21.7795H76.8159H77.3817V20.5713C77.3817 19.4625 77.41 19.3204 77.7354 19.0077C77.9193 18.8086 78.2022 18.6523 78.372 18.6523C78.5983 18.6523 78.6549 18.567 78.6549 18.1548C78.6549 17.7283 78.6125 17.6572 78.3295 17.6572C78.1456 17.6572 77.8769 17.7852 77.7212 17.9558L77.4666 18.2401L77.3534 17.9558C77.2827 17.7425 77.1271 17.6572 76.8442 17.6572C76.6178 17.6572 76.3915 17.6999 76.349 17.7568Z" fill="black"/>
  <path d="M79.3623 19.7042V21.7795H79.9282H80.5082L80.4657 19.7468L80.4233 17.7283L79.8999 17.6857L79.3623 17.643V19.7042Z" fill="black"/>
  <path d="M81.4839 19.7184V21.7795H82.0497H82.6156V20.3865C82.6156 19.2067 82.6581 18.9366 82.8703 18.7518C83.1673 18.4817 83.5634 18.4391 83.8888 18.6523C84.0444 18.7518 84.1151 19.1498 84.1434 20.287L84.2 21.7795H84.7659H85.3459L85.2752 20.0453C85.2044 18.3822 85.1903 18.2969 84.8225 17.9842C84.3132 17.5577 83.3795 17.5293 82.842 17.9558L82.4741 18.2401V17.9558C82.4741 17.7141 82.3893 17.6572 81.979 17.6572H81.4839V19.7184Z" fill="black"/>
  <path d="M86.7749 17.9122C85.7139 18.7651 85.7705 21.0537 86.8739 21.6507C87.3549 21.9066 88.232 21.8639 88.5715 21.5512C88.8545 21.2953 88.8545 21.2953 88.812 21.8497C88.7837 22.3046 88.6988 22.4467 88.3735 22.6031C88.0481 22.7594 87.9208 22.7594 87.5388 22.5747C86.973 22.2904 86.1525 22.2761 86.1525 22.5462C86.1525 22.8163 86.5344 23.1859 86.9588 23.3565C87.4964 23.5555 88.6706 23.5128 89.1374 23.257C89.8447 22.9016 89.972 22.3472 89.972 19.8596V17.6563H89.4769C89.1657 17.6563 88.9393 17.7416 88.8969 17.8696C88.8262 18.0543 88.7837 18.0543 88.5149 17.8696C88.1047 17.5853 87.1427 17.5995 86.7749 17.9122ZM88.5574 18.7935C88.7554 18.9925 88.8403 19.2626 88.8403 19.7459C88.8403 20.5277 88.5432 20.9257 87.9774 20.9257C87.4539 20.9257 87.1427 20.4566 87.1427 19.689C87.1427 19.0067 87.5105 18.5092 87.9915 18.5092C88.1471 18.5092 88.4018 18.6372 88.5574 18.7935Z" fill="black"/>
</svg>