<svg xmlns="http://www.w3.org/2000/svg" width="87" height="28" viewBox="0 0 87 28" fill="none">
  <path d="M62.4307 13.8088V15.3729H64.4075V22.7352H66.0226V15.3729H67.9607V13.8088H62.4307Z" fill="#F39800"/>
  <path d="M68.9888 13.8088V22.7352H74.2216V21.1835H70.6082V18.8229H73.4464V17.2754H70.6082V15.3729H74.2216V13.8088H68.9888Z" fill="#F39800"/>
  <path d="M78.8412 13.8088H76.9461C76.0288 13.8088 75.2837 14.531 75.2837 15.4142V21.1257C75.2837 22.0584 75.9857 22.7311 76.9461 22.7311H78.8412C79.7628 22.7311 80.5165 22.0089 80.5165 21.1257V20.2591H78.8842V21.0391C78.8842 21.1464 78.7809 21.1835 78.7077 21.1835H77.0797C77.0021 21.1835 76.8988 21.0844 76.8988 20.9772V15.5297C76.8988 15.4802 76.9375 15.3729 77.0538 15.3729H78.7077C78.7077 15.3729 78.8842 15.3729 78.8842 15.505V16.2808H80.5165V15.4142C80.5165 14.5269 79.7628 13.8088 78.8412 13.8088Z" fill="#F39800"/>
  <path d="M86.9052 13.8088H85.3676V17.2754H83.3865V13.8088H81.7671V22.7352H83.3865V18.8229H85.3676V22.7352H86.9999V13.8088H86.9052Z" fill="#F39800"/>
  <path d="M58.8646 13.8088H56.9696C56.0522 13.8088 55.3071 14.531 55.3071 15.4142V22.7311H56.9265V19.574H58.9077V22.7311H60.54V15.4142C60.54 14.5269 59.7863 13.8088 58.8646 13.8088ZM58.9077 18.0265H56.9265V15.5008C56.9265 15.3729 57.0859 15.3688 57.1031 15.3688H58.7311C58.7311 15.3688 58.9077 15.3688 58.9077 15.5008V18.0265Z" fill="#005189"/>
  <path d="M32.1753 13.8103V15.6054C32.1366 15.6467 30.6895 17.0292 30.1942 17.5038V13.8061H28.5791V22.7284H30.1942V18.6056C30.543 18.9358 31.3312 19.691 31.3312 19.691C31.3312 19.691 32.1237 20.4462 32.1753 20.4957V22.7242H33.8076V19.8685C33.8076 19.8685 32.0289 18.1599 31.904 18.0403C32.0289 17.9206 33.8076 16.2286 33.8076 16.2286V13.802H32.1753V13.8103Z" fill="#005189"/>
  <path d="M38.8706 13.8088H36.9755C36.0582 13.8088 35.3174 14.531 35.3174 15.4142V21.1257C35.3174 22.0584 36.0151 22.7311 36.9755 22.7311H38.8706C39.7922 22.7311 40.5459 22.0089 40.5459 21.1257V15.4142C40.5459 14.5269 39.7965 13.8088 38.8706 13.8088ZM38.9136 21.0391C38.9136 21.1464 38.8059 21.1835 38.737 21.1835H37.109C37.0315 21.1835 36.9325 21.0844 36.9325 20.9772V15.5339C36.9325 15.4678 36.9798 15.377 37.0832 15.377H38.737C38.737 15.377 38.9136 15.377 38.9136 15.5091V21.0432V21.0391Z" fill="#005189"/>
  <path d="M48.8843 13.8095V22.7318H54.1171V21.1801H50.5037V18.8195H53.3419V17.2678H50.5037V15.3695H54.1171V13.8054H48.8843V13.8095Z" fill="#005189"/>
  <path d="M42.0532 13.8095V22.7318H43.6726V18.8195H45.236C45.4729 18.8278 45.6408 18.9846 45.6538 19.2116V22.7318H47.2861V19.0713C47.2818 18.6338 47.0664 18.283 46.7003 18.0519C47.0664 17.8208 47.2775 17.4701 47.2861 17.0285V17.0367V15.4108C47.2861 14.5235 46.5367 13.8054 45.6107 13.8054H42.0532V13.8095ZM45.6538 16.8139C45.6452 17.1523 45.3954 17.272 45.1585 17.272C44.6761 17.272 43.7932 17.272 43.6726 17.272V15.3736H45.5159C45.6064 15.3736 45.6538 15.4644 45.6538 15.5304V16.8139Z" fill="#005189"/>
  <path d="M0 0.40625V2.39126H8.29503V11.0122C7.44227 10.2075 6.49045 9.31196 6.21912 9.0561V4.38039H4.14752V9.88559L7.54564 13.0921L4.4533 16.0098L4.14321 16.2987V24.1273C4.52652 24.4203 4.92706 24.7051 5.33621 24.9774C5.62477 25.1714 5.91764 25.3571 6.21482 25.5346V17.1241C6.48615 16.8682 7.43797 15.9727 8.29073 15.1679V26.6653C8.53622 26.7891 8.78602 26.9088 9.03582 27.0243C9.4622 27.2224 9.91011 27.4081 10.3666 27.5938V0.40625H0Z" fill="url(#paint0_linear_1908_60)"/>
  <path d="M22.8574 0.40625V2.39126H14.5624V11.0122C15.4151 10.2075 16.367 9.31196 16.6383 9.0561V4.38039H18.7099V9.88559L15.3118 13.0921L18.4041 16.0098L18.7142 16.2987V24.1273C18.3309 24.4203 17.9304 24.7051 17.5212 24.9774C17.2326 25.1714 16.9398 25.3571 16.6426 25.5346V17.1241C16.3713 16.8682 15.4195 15.9727 14.5667 15.1679V26.6653C14.3212 26.7891 14.0714 26.9088 13.8216 27.0243C13.3952 27.2224 12.9473 27.4081 12.4908 27.5938V0.40625H22.8574Z" fill="url(#paint1_linear_1908_60)"/>
  <path d="M5.04765 13.088C5.04765 13.088 2.54967 10.7481 2.0716 10.2983V4.38037H0V11.1319C0 11.1319 1.33944 12.3906 2.08453 13.0839C1.33944 13.7813 0 15.04 0 15.04V19.7982C0.473756 20.5204 1.03365 21.2344 1.67537 21.9194C1.80458 22.0556 1.93809 22.1918 2.0716 22.328V15.8777C2.54967 15.4279 5.04765 13.088 5.04765 13.088Z" fill="url(#paint2_linear_1908_60)"/>
  <path d="M20.7229 13.088C21.4637 12.3906 22.8074 11.136 22.8074 11.136V4.38037H20.7358V10.2983C20.2578 10.7481 17.7598 13.088 17.7598 13.088C17.7598 13.088 20.2578 15.4279 20.7358 15.8777V22.3486C20.8779 22.2083 21.0158 22.068 21.1493 21.9235C21.7781 21.2509 22.338 20.5452 22.8117 19.8271V15.04C22.8117 15.04 21.468 13.7813 20.7272 13.0839L20.7229 13.088Z" fill="url(#paint3_linear_1908_60)"/>
  <path d="M33.3614 4.55078H32.4526V9.61441H33.3614V7.36528H34.2831V6.60182H33.3614V4.55078Z" fill="#005189"/>
  <path d="M45.8579 11.5781H46.7839V4.5542H45.8579V11.5781Z" fill="#005189"/>
  <path d="M72.4631 6.60111H71.9118V4.5542H71.0203V8.49533H68.7505V5.6313H70.4216V4.85133H67.8418V8.73881C67.8418 8.99055 68.1261 9.27117 68.5051 9.27117H71.0203V11.5698H71.9118V7.37696H72.4631V11.5739H73.3718V4.5542H72.4631V6.60111Z" fill="#005189"/>
  <path d="M79.4976 4.55078H78.5889V8.75603H79.4976V7.00625H80.5226V6.24278H79.4976V4.55078Z" fill="#005189"/>
  <path d="M31.5395 6.98147C31.5395 6.53989 31.3199 6.14785 30.9796 5.87547H31.8798V5.12852H30.3723V4.4187H29.4507V5.12852H27.939V5.87547H28.8176C28.4773 6.14785 28.2577 6.53989 28.2577 6.98147C28.2577 7.79858 28.9941 8.463 29.9029 8.463C30.8116 8.463 31.5481 7.79858 31.5481 6.98147H31.5395ZM29.1492 6.98147C29.1492 6.57291 29.4851 6.23864 29.8986 6.23864C30.312 6.23864 30.648 6.57291 30.648 6.98147C30.648 7.39002 30.312 7.7243 29.8986 7.7243C29.4851 7.7243 29.1492 7.39002 29.1492 6.98147Z" fill="#005189"/>
  <path d="M77.8109 6.98147C77.8109 6.53989 77.5913 6.14785 77.2467 5.87547H78.1468V5.12852H76.6437V4.4187H75.7221V5.12852H74.2061V5.87547H75.0847C74.7444 6.14785 74.5248 6.53989 74.5248 6.98147C74.5248 7.79858 75.2612 8.463 76.17 8.463C77.0787 8.463 77.8152 7.79858 77.8152 6.98147H77.8109ZM75.4163 6.98147C75.4163 6.57291 75.7522 6.23864 76.1657 6.23864C76.5791 6.23864 76.9151 6.57291 76.9151 6.98147C76.9151 7.39002 76.5791 7.7243 76.1657 7.7243C75.7522 7.7243 75.4163 7.39002 75.4163 6.98147Z" fill="#005189"/>
  <path d="M50.7132 5.70946H50.7261H50.7348C50.7864 5.73422 52.8537 6.85672 53.082 6.9764C53.1035 6.93513 53.3921 6.38626 53.4136 6.35325C53.3749 6.33262 51.1827 5.0698 51.1827 5.0698V4.46729H50.2739V5.0698C50.2739 5.0698 48.0817 6.33262 48.043 6.35325C48.0602 6.39039 48.3531 6.93513 48.3703 6.9764C48.5942 6.8526 50.6659 5.73422 50.7175 5.70946H50.7132Z" fill="#005189"/>
  <path d="M84.6825 9.59393V7.31592H83.7737V9.59393H83.0372V7.31592H82.1285V9.59393H80.7158V10.3574H86.978V9.59393H84.6781H84.6825Z" fill="#005189"/>
  <path d="M30.0859 9.27173H29.147V10.939C29.147 11.1907 29.4312 11.4713 29.8102 11.4713H33.4452V10.7037H30.0859V9.27173Z" fill="#005189"/>
  <path d="M47.495 8.09896H50.2687V8.52815H48.5416V9.22146H51.9483V9.68367H48.5416V10.9341C48.5416 11.1858 48.8259 11.4665 49.2049 11.4665H53.0294V10.7566H49.5709V10.3316H52.87V8.52403H51.1731V8.09483H53.9467V7.34375H47.4907V8.09483L47.495 8.09896Z" fill="#005189"/>
  <path d="M85.2786 8.95144H86.1658V5.38173C86.1658 5.12999 85.8816 4.84937 85.5026 4.84937H81.4541V5.61283H85.2786V8.95144Z" fill="#005189"/>
  <path d="M58.1835 7.31592H57.2748V9.59393H56.5426V7.31592H55.6338V9.59393H54.2212V10.3574H60.4834V9.59393H58.1835V7.31592Z" fill="#005189"/>
  <path d="M58.7743 8.95144H59.6615V5.38173C59.6615 5.12999 59.3773 4.84937 58.9983 4.84937H54.9541V5.61283H58.7743V8.95144Z" fill="#005189"/>
  <path d="M40.0285 5.23256C40.0285 4.98082 39.7442 4.7002 39.3652 4.7002H35.5708V5.46779H39.1197V7.3001H34.7095V8.06769H37.3797V9.02099H35.5967V9.78446H39.1326V11.6085H40.0414V9.55335C40.0414 9.30162 39.7528 9.02099 39.3738 9.02099H38.3014V8.06769H40.9803V7.3001H40.0285V5.23668V5.23256Z" fill="#005189"/>
  <path d="M60.8774 8.411H62.6476V9.12907H61.8379V9.88015H65.3566V11.6134H66.2653V9.66143C66.2653 9.40969 65.9811 9.12907 65.6021 9.12907H65.348V8.411H67.1353V7.65991H60.8774V8.411ZM63.5563 8.411H64.4392V9.12907H63.5563V8.411Z" fill="#005189"/>
  <path d="M78.8216 9.15015H75.3848V9.91361H78.5891V11.6056H79.4978V9.68251C79.4978 9.43077 79.205 9.15015 78.8216 9.15015Z" fill="#005189"/>
  <path d="M64.0115 7.4321C64.9719 7.4321 65.7514 6.73053 65.7514 5.86803C65.7514 5.00552 64.9719 4.30396 64.0115 4.30396C63.051 4.30396 62.2715 5.00552 62.2715 5.86803C62.2715 6.73053 63.051 7.4321 64.0115 7.4321ZM64.0115 5.04679C64.468 5.04679 64.8384 5.41407 64.8384 5.86803C64.8384 6.32198 64.468 6.68927 64.0115 6.68927C63.5549 6.68927 63.1845 6.32198 63.1845 5.86803C63.1845 5.41407 63.5549 5.04679 64.0115 5.04679Z" fill="#005189"/>
  <path d="M44.1102 4.91553H41.4873V5.6955H43.8345V7.05736C43.8345 7.05736 41.6424 9.16617 41.6079 9.19918L42.2195 9.76869L44.5926 7.46179C44.7002 7.35861 44.7691 7.21005 44.7734 7.05323V5.45202C44.7734 5.20028 44.4892 4.91965 44.1102 4.91965V4.91553Z" fill="#005189"/>
  <defs>
    <linearGradient id="paint0_linear_1908_60" x1="19.0317" y1="1.95579" x2="19.0317" y2="28.8874" gradientUnits="userSpaceOnUse">
      <stop offset="0.17" stop-color="#F6AB00"/>
      <stop offset="0.5" stop-color="#F39800"/>
      <stop offset="0.73" stop-color="#EE7800"/>
      <stop offset="1" stop-color="#EB6100"/>
    </linearGradient>
    <linearGradient id="paint1_linear_1908_60" x1="3.8257" y1="1.95579" x2="3.8257" y2="28.8874" gradientUnits="userSpaceOnUse">
      <stop offset="0.17" stop-color="#F6AB00"/>
      <stop offset="0.5" stop-color="#F39800"/>
      <stop offset="0.73" stop-color="#EE7800"/>
      <stop offset="1" stop-color="#EB6100"/>
    </linearGradient>
    <linearGradient id="paint2_linear_1908_60" x1="16.3998" y1="1.93497" x2="16.3998" y2="28.8787" gradientUnits="userSpaceOnUse">
      <stop offset="0.17" stop-color="#F6AB00"/>
      <stop offset="0.5" stop-color="#F39800"/>
      <stop offset="0.73" stop-color="#EE7800"/>
      <stop offset="1" stop-color="#EB6100"/>
    </linearGradient>
    <linearGradient id="paint3_linear_1908_60" x1="33.9847" y1="1.93497" x2="33.9847" y2="28.8787" gradientUnits="userSpaceOnUse">
      <stop offset="0.17" stop-color="#F6AB00"/>
      <stop offset="0.5" stop-color="#F39800"/>
      <stop offset="0.73" stop-color="#EE7800"/>
      <stop offset="1" stop-color="#EB6100"/>
    </linearGradient>
  </defs>
</svg>