<svg width="24" height="24" viewBox="0 0 24 24" fill="none" xmlns="http://www.w3.org/2000/svg">
<mask id="mask0_2014_1240" style="mask-type:alpha" maskUnits="userSpaceOnUse" x="0" y="0" width="24" height="24">
<rect width="24" height="24" fill="#D9D9D9"/>
</mask>
<g mask="url(#mask0_2014_1240)">
<path d="M12.0008 10.7749L8.10078 14.6749C7.91745 14.8582 7.68411 14.9499 7.40078 14.9499C7.11745 14.9499 6.88411 14.8582 6.70078 14.6749C6.51745 14.4916 6.42578 14.2582 6.42578 13.9749C6.42578 13.6916 6.51745 13.4582 6.70078 13.2749L11.3008 8.6749C11.4008 8.5749 11.5091 8.50407 11.6258 8.4624C11.7424 8.42074 11.8674 8.3999 12.0008 8.3999C12.1341 8.3999 12.2591 8.42074 12.3758 8.4624C12.4924 8.50407 12.6008 8.5749 12.7008 8.6749L17.3008 13.2749C17.4841 13.4582 17.5758 13.6916 17.5758 13.9749C17.5758 14.2582 17.4841 14.4916 17.3008 14.6749C17.1174 14.8582 16.8841 14.9499 16.6008 14.9499C16.3174 14.9499 16.0841 14.8582 15.9008 14.6749L12.0008 10.7749Z" fill="#1C1B1F"/>
</g>
</svg>
