<svg width="24" height="24" viewBox="0 0 24 24" fill="none" xmlns="http://www.w3.org/2000/svg">
<g id="icn24">
<mask id="mask0_2014_2126" style="mask-type:alpha" maskUnits="userSpaceOnUse" x="0" y="0" width="24" height="24">
<rect id="Bounding box" width="24" height="24" fill="#D9D9D9"/>
</mask>
<g mask="url(#mask0_2014_2126)">
<path id="expand_more" d="M12.0008 14.9499C11.8674 14.9499 11.7424 14.9291 11.6258 14.8874C11.5091 14.8457 11.4008 14.7749 11.3008 14.6749L6.70078 10.0749C6.51745 9.89157 6.42578 9.65824 6.42578 9.3749C6.42578 9.09157 6.51745 8.85824 6.70078 8.6749C6.88411 8.49157 7.11745 8.3999 7.40078 8.3999C7.68411 8.3999 7.91745 8.49157 8.10078 8.6749L12.0008 12.5749L15.9008 8.6749C16.0841 8.49157 16.3174 8.3999 16.6008 8.3999C16.8841 8.3999 17.1174 8.49157 17.3008 8.6749C17.4841 8.85824 17.5758 9.09157 17.5758 9.3749C17.5758 9.65824 17.4841 9.89157 17.3008 10.0749L12.7008 14.6749C12.6008 14.7749 12.4924 14.8457 12.3758 14.8874C12.2591 14.9291 12.1341 14.9499 12.0008 14.9499Z" fill="#3B3B3B"/>
</g>
</g>
</svg>
