<svg width="91" height="26" viewBox="0 0 91 26" fill="none" xmlns="http://www.w3.org/2000/svg">
<g clip-path="url(#clip0_1441_300)">
<path d="M50.936 20.4335C54.2867 18.0719 56.758 15.8112 56.4557 15.3839C56.1533 14.9567 53.192 16.5248 49.8412 18.8864C46.4905 21.2479 44.0192 23.5087 44.3216 23.9359C44.6239 24.3631 47.5853 22.795 50.936 20.4335Z" fill="#646AB0"/>
<path d="M68.6315 7.16272C73.4158 3.7745 77.1705 0.853666 77.0178 0.638863C76.865 0.424061 72.8627 2.99663 68.0784 6.38485C63.294 9.77308 59.5393 12.6939 59.6921 12.9087C59.8448 13.1235 63.8471 10.5509 68.6315 7.16272Z" stroke="#646AB0" stroke-miterlimit="10"/>
<path d="M74.8617 7.1137C74.8003 5.6421 74.3975 4.42939 73.667 3.4892C72.2881 4.53158 70.5746 5.79198 68.6972 7.12051C67.8985 7.68599 67.1203 8.23103 66.3761 8.742C66.3625 8.95321 66.3352 9.17803 66.3011 9.40968C66.1577 10.3499 65.871 11.4944 65.4545 12.8502C65.0313 14.2265 64.6012 15.3778 64.1711 16.3044C63.741 17.231 63.2427 17.9872 62.6761 18.5527C62.1095 19.125 61.4609 19.5338 60.7236 19.7858C59.9864 20.0379 59.1194 20.1606 58.1159 20.1606C57.1123 20.1606 56.2863 20.0379 55.7197 19.7858C55.1531 19.5338 54.764 19.125 54.5523 18.5527C54.3407 17.9804 54.3066 17.231 54.4499 16.3044C54.5933 15.3778 54.8732 14.2265 55.3033 12.8502C55.7197 11.4944 56.1498 10.3499 56.5867 9.40968C57.0236 8.46948 57.5219 7.71324 58.0817 7.14777C58.6415 6.57548 59.29 6.1667 60.0069 5.91462C60.7305 5.66254 61.6043 5.5399 62.6351 5.5399C63.666 5.5399 64.4237 5.66935 65.004 5.91462C65.5843 6.1667 65.9802 6.57548 66.1918 7.14777C66.2464 7.29765 66.2874 7.46116 66.3215 7.6383C66.8608 7.24996 67.4206 6.848 68.0009 6.43922C69.8919 5.09706 71.6737 3.87754 73.1346 2.91009C72.3495 2.16067 71.2982 1.59519 69.9806 1.22729C68.4242 0.791258 66.4854 0.573242 64.1643 0.573242C61.8432 0.573242 59.7747 0.791258 57.9452 1.22729C56.1225 1.66332 54.5045 2.36506 53.0914 3.3325C51.6783 4.29994 50.4631 5.56034 49.4323 7.12051C48.4015 8.68069 47.5413 10.5883 46.8382 12.857C46.135 15.119 45.821 17.0334 45.8893 18.5936C45.9575 20.1537 46.3944 21.4141 47.2068 22.3816C48.0192 23.349 49.2002 24.0508 50.7567 24.4868C52.3132 24.9228 54.252 25.1408 56.573 25.1408C58.8941 25.1408 60.9626 24.9228 62.7921 24.4868C64.6149 24.0508 66.2328 23.349 67.6459 22.3816C69.059 21.4141 70.2742 20.1537 71.305 18.5936C72.3358 17.0334 73.196 15.1258 73.8992 12.857C74.6023 10.5951 74.9163 8.68069 74.8481 7.12051L74.8617 7.1137Z" fill="#646AB0"/>
<path d="M86.5558 9.45063L89.3411 0.450684H80.8828L73.2164 25.2431H81.6747L85.0198 14.4173H88.5014L90.9999 9.45063H86.5558Z" fill="#646AB0"/>
<path d="M15.5444 0.743642L15.1962 1.8746H24.3303L24.6785 0.743642H33.1299L29.7575 11.658H21.3061L21.586 10.7587C20.4664 11.0517 19.2786 11.2697 18.0224 11.4264C16.7663 11.5831 15.3805 11.658 13.865 11.658H3.72054L7.09293 0.743642H15.5444ZM39.035 20.7193H9.85773L9.61197 21.5028H11.7829C16.3226 21.5028 20.9306 21.4755 25.6001 21.4278C30.2695 21.3802 34.8775 21.2848 39.4309 21.1553L38.7005 24.9297C34.1198 25.066 29.4708 25.1545 24.7536 25.1886C20.0363 25.2295 15.3327 25.2499 10.6291 25.2499H0L2.53953 17.0335H31.7236L31.9557 16.2772H2.77163L3.91169 12.5914H41.5472L39.035 20.7193ZM15.1348 7.53618C16.5547 7.53618 17.8996 7.44761 19.1762 7.27729C20.4528 7.10015 21.702 6.814 22.924 6.40523L23.0128 6.11227H13.8787L13.4417 7.53618H15.1348ZM33.3757 11.658L36.8436 0.450684H45.2951L44.353 3.49608H48.7971L46.2986 8.46275H42.817L41.8271 11.658H33.3757Z" fill="#646AB0"/>
</g>
<defs>
<clipPath id="clip0_1441_300">
<rect width="91" height="25" fill="white" transform="translate(0 0.25)"/>
</clipPath>
</defs>
</svg>
