<svg width="210" height="30" viewBox="0 0 210 30" fill="none" xmlns="http://www.w3.org/2000/svg">
<g clip-path="url(#clip0_1195_2491)">
<path d="M109.146 25.8648C109.099 25.7713 109.029 25.7011 108.912 25.6544C108.807 25.6076 108.667 25.5843 108.504 25.5843C108.34 25.5843 108.177 25.6076 108.036 25.6661C107.896 25.7128 107.768 25.7947 107.674 25.8882C107.581 25.9817 107.511 26.0869 107.476 26.2038C107.418 26.3791 107.453 26.5194 107.569 26.6129C107.686 26.7064 107.85 26.7882 108.048 26.835L108.422 26.9402C108.749 27.022 108.994 27.1622 109.169 27.3376C109.344 27.5246 109.379 27.7818 109.274 28.1207C109.204 28.3545 109.076 28.5649 108.901 28.7519C108.725 28.939 108.504 29.0792 108.235 29.1844C107.966 29.2896 107.674 29.3481 107.348 29.3481C107.021 29.3481 106.787 29.3013 106.577 29.1961C106.378 29.0909 106.238 28.9506 106.168 28.7753C106.098 28.5883 106.086 28.3779 106.156 28.1207H106.787C106.752 28.261 106.764 28.3896 106.822 28.4831C106.88 28.5883 106.962 28.6584 107.079 28.7052C107.196 28.7519 107.336 28.7753 107.511 28.7753C107.686 28.7753 107.861 28.7519 108.013 28.6935C108.177 28.635 108.305 28.5532 108.422 28.4597C108.527 28.3545 108.609 28.2376 108.644 28.109C108.679 27.9922 108.679 27.8986 108.644 27.8168C108.597 27.735 108.539 27.6766 108.433 27.6181C108.34 27.5714 108.212 27.5129 108.06 27.4778L107.604 27.3493C107.277 27.2558 107.056 27.1155 106.927 26.9285C106.799 26.7531 106.775 26.5194 106.857 26.2271C106.927 25.9934 107.056 25.783 107.242 25.5959C107.429 25.4089 107.651 25.2687 107.908 25.1751C108.165 25.0699 108.433 25.0232 108.714 25.0232C108.994 25.0232 109.228 25.0699 109.414 25.1751C109.601 25.2687 109.73 25.4089 109.8 25.5843C109.87 25.7596 109.87 25.9583 109.811 26.1804H109.192C109.216 26.0518 109.204 25.9466 109.157 25.8531L109.146 25.8648Z" fill="#636FB4"/>
<path d="M110.886 25.0932H112.381C112.696 25.0932 112.941 25.1517 113.128 25.2686C113.315 25.3855 113.42 25.5491 113.467 25.7478C113.513 25.9465 113.49 26.192 113.408 26.4491C113.326 26.7063 113.198 26.9401 113.023 27.1505C112.848 27.3492 112.638 27.5128 112.381 27.6297C112.124 27.7466 111.843 27.805 111.528 27.805H110.501L110.664 27.2674H111.633C111.832 27.2674 112.007 27.2323 112.159 27.1622C112.311 27.092 112.439 26.9985 112.532 26.8699C112.626 26.753 112.708 26.6011 112.754 26.4491C112.801 26.2855 112.813 26.1452 112.789 26.0166C112.766 25.8998 112.696 25.8063 112.591 25.7361C112.486 25.666 112.322 25.6309 112.124 25.6309H111.33L110.209 29.2778H109.578L110.863 25.0815L110.886 25.0932Z" fill="#636FB4"/>
<path d="M114.494 25.0933H115.988C116.303 25.0933 116.56 25.1517 116.747 25.2569C116.934 25.3621 117.051 25.5141 117.097 25.7128C117.144 25.9115 117.133 26.1453 117.051 26.4024C116.969 26.6596 116.852 26.8817 116.677 27.0804C116.514 27.2791 116.303 27.431 116.047 27.5362C115.79 27.6414 115.509 27.6999 115.194 27.6999H114.061L114.237 27.1505H115.311C115.509 27.1505 115.696 27.1271 115.836 27.0687C115.988 27.0102 116.105 26.9284 116.198 26.8115C116.292 26.7063 116.362 26.5661 116.409 26.4141C116.455 26.2505 116.467 26.1102 116.444 25.9933C116.42 25.8764 116.35 25.7946 116.233 25.7361C116.117 25.6777 115.965 25.6426 115.766 25.6426H114.972L113.851 29.2896H113.221L114.505 25.0933H114.494ZM116.303 29.2896H115.579L115.147 27.396H115.848L116.303 29.2896Z" fill="#636FB4"/>
<path d="M120.543 28.3312C120.286 28.6585 119.982 28.9039 119.644 29.0793C119.305 29.2546 118.955 29.3364 118.593 29.3364C118.231 29.3364 117.927 29.2546 117.705 29.0793C117.472 28.9039 117.332 28.6585 117.262 28.3312C117.203 28.0039 117.238 27.6298 117.367 27.1857C117.507 26.7415 117.705 26.3674 117.962 26.0402C118.219 25.7129 118.523 25.4674 118.862 25.2921C119.2 25.1167 119.55 25.0349 119.912 25.0349C120.274 25.0349 120.578 25.1167 120.8 25.2921C121.022 25.4674 121.174 25.7129 121.244 26.0402C121.302 26.3674 121.267 26.7415 121.139 27.1857C121.01 27.6181 120.812 28.0039 120.543 28.3312ZM120.613 26.3324C120.578 26.0986 120.485 25.9116 120.333 25.7947C120.181 25.6778 119.982 25.6077 119.737 25.6077C119.492 25.6077 119.259 25.6661 119.037 25.7947C118.815 25.9116 118.605 26.0986 118.429 26.3324C118.254 26.5662 118.102 26.8584 118.009 27.1857C117.904 27.5129 117.869 27.8052 117.904 28.0389C117.939 28.2727 118.032 28.4597 118.184 28.5766C118.336 28.6935 118.535 28.7637 118.78 28.7637C119.025 28.7637 119.259 28.7052 119.492 28.5766C119.714 28.4597 119.924 28.2727 120.099 28.0389C120.274 27.8052 120.426 27.5129 120.52 27.1857C120.625 26.8584 120.66 26.5662 120.625 26.3324H120.613Z" fill="#636FB4"/>
<path d="M125.832 25.0933L124.991 27.8518C124.898 28.144 124.757 28.4012 124.547 28.6233C124.337 28.8454 124.092 29.0324 123.8 29.161C123.508 29.2896 123.193 29.3597 122.866 29.3597C122.539 29.3597 122.259 29.2896 122.048 29.161C121.838 29.0324 121.698 28.8571 121.628 28.6233C121.558 28.4012 121.57 28.1324 121.663 27.8518L122.504 25.0933H123.134L122.305 27.8051C122.247 27.9921 122.235 28.1557 122.282 28.3077C122.317 28.4596 122.399 28.5765 122.539 28.6584C122.667 28.7402 122.831 28.7869 123.041 28.7869C123.251 28.7869 123.45 28.7402 123.625 28.6584C123.812 28.5765 123.963 28.4596 124.092 28.3077C124.22 28.1557 124.314 27.9921 124.372 27.8051L125.201 25.0933H125.843H125.832Z" fill="#636FB4"/>
<path d="M126.474 25.0933H129.72L129.557 25.6426H128.261L127.14 29.2896H126.497L127.618 25.6426H126.311L126.474 25.0933Z" fill="#636FB4"/>
<path d="M129.709 29.2896H129.078L130.363 25.0933H130.993L129.709 29.2896Z" fill="#636FB4"/>
<path d="M133.948 29.2896H133.364L132.185 26.2271H132.15L131.204 29.2896H130.573L131.858 25.0933H132.453L133.633 28.1557H133.668L134.613 25.0933H135.244L133.96 29.2896H133.948Z" fill="#636FB4"/>
<path d="M138.408 25.9934C138.338 25.8765 138.245 25.783 138.128 25.7129C137.999 25.6427 137.848 25.6194 137.672 25.6194C137.439 25.6194 137.205 25.6778 136.972 25.8064C136.75 25.9233 136.54 26.1103 136.365 26.3441C136.178 26.5778 136.038 26.8701 135.944 27.1973C135.839 27.5246 135.816 27.8052 135.851 28.0506C135.886 28.2844 135.979 28.4714 136.131 28.5883C136.283 28.7169 136.481 28.7753 136.738 28.7753C136.96 28.7753 137.182 28.7286 137.381 28.6351C137.579 28.5416 137.754 28.413 137.894 28.2377C138.034 28.0623 138.151 27.8753 138.21 27.6415L138.361 27.6649H137.17L137.334 27.1389H138.98L138.829 27.6181C138.723 27.9688 138.56 28.261 138.326 28.5299C138.093 28.787 137.824 28.9974 137.521 29.1377C137.217 29.278 136.89 29.3481 136.551 29.3481C136.178 29.3481 135.874 29.2546 135.641 29.0793C135.407 28.9039 135.255 28.6585 135.197 28.3312C135.139 28.0039 135.174 27.6298 135.314 27.1857C135.454 26.7532 135.641 26.3674 135.909 26.0402C136.166 25.7129 136.47 25.4674 136.808 25.2921C137.147 25.1167 137.497 25.0349 137.859 25.0349C138.163 25.0349 138.408 25.0934 138.63 25.2102C138.84 25.3271 138.992 25.4908 139.097 25.7012C139.19 25.9116 139.226 26.1454 139.19 26.4259H138.537C138.537 26.2622 138.502 26.122 138.443 25.9934H138.408Z" fill="#636FB4"/>
<path d="M140.814 28.6819C140.814 28.6819 140.732 28.5884 140.709 28.5299C140.697 28.4715 140.697 28.4014 140.709 28.3312C140.732 28.2611 140.767 28.191 140.826 28.1325C140.884 28.0741 140.942 28.0156 141.024 27.9806C141.094 27.9455 141.176 27.9221 141.246 27.9221C141.316 27.9221 141.375 27.9455 141.433 27.9806C141.491 28.0156 141.515 28.0624 141.538 28.1325C141.561 28.2026 141.55 28.2611 141.538 28.3312C141.515 28.4014 141.48 28.4715 141.421 28.5299C141.363 28.5884 141.304 28.6468 141.223 28.6819C141.153 28.717 141.071 28.7403 141.001 28.7403C140.931 28.7403 140.861 28.717 140.814 28.6819ZM141.515 26.3909C141.515 26.3909 141.433 26.2974 141.41 26.2389C141.398 26.1805 141.398 26.1103 141.41 26.0402C141.433 25.9701 141.468 25.8999 141.526 25.8415C141.585 25.7831 141.643 25.7246 141.725 25.6895C141.795 25.6545 141.877 25.6311 141.947 25.6311C142.017 25.6311 142.075 25.6545 142.134 25.6895C142.192 25.7246 142.215 25.7714 142.239 25.8415C142.25 25.8999 142.25 25.9701 142.239 26.0402C142.215 26.1103 142.18 26.1805 142.122 26.2389C142.063 26.2974 142.005 26.3558 141.923 26.3909C141.853 26.4259 141.772 26.4493 141.702 26.4493C141.631 26.4493 141.561 26.4259 141.515 26.3909Z" fill="#636FB4"/>
<path d="M144.574 25.0933H147.82L147.656 25.6426H146.36L145.239 29.2896H144.597L145.718 25.6426H144.41L144.574 25.0933Z" fill="#636FB4"/>
<path d="M148.462 25.0933H149.093L148.532 26.9167H150.611L151.171 25.0933H151.814L150.529 29.2896H149.887L150.447 27.4661H148.369L147.808 29.2896H147.178L148.462 25.0933Z" fill="#636FB4"/>
<path d="M152.666 25.0933H155.294L155.13 25.6426H153.133L152.748 26.9167H154.605L154.441 27.4661H152.585L152.188 28.7402H154.196L154.033 29.2896H151.382L152.666 25.0933Z" fill="#636FB4"/>
<path d="M158.283 25.0933L158.61 28.3428H158.656L160.98 25.0933H161.751L160.466 29.2896H159.859L160.793 26.2621H160.758L158.598 29.2779H158.096L157.792 26.2621H157.757L156.823 29.2896H156.216L157.5 25.0933H158.271H158.283Z" fill="#636FB4"/>
<path d="M165.021 28.3312C164.764 28.6585 164.46 28.9039 164.121 29.0793C163.783 29.2546 163.432 29.3364 163.07 29.3364C162.708 29.3364 162.405 29.2546 162.183 29.0793C161.949 28.9039 161.809 28.6585 161.739 28.3312C161.681 28.0039 161.716 27.6298 161.844 27.1857C161.985 26.7415 162.183 26.3674 162.44 26.0402C162.697 25.7129 163 25.4674 163.339 25.2921C163.678 25.1167 164.028 25.0349 164.39 25.0349C164.752 25.0349 165.056 25.1167 165.277 25.2921C165.499 25.4674 165.651 25.7129 165.721 26.0402C165.78 26.3674 165.745 26.7415 165.616 27.1857C165.488 27.6181 165.289 28.0039 165.021 28.3312ZM165.091 26.3324C165.056 26.0986 164.962 25.9116 164.81 25.7947C164.659 25.6778 164.46 25.6077 164.215 25.6077C163.97 25.6077 163.736 25.6661 163.514 25.7947C163.292 25.9116 163.082 26.0986 162.907 26.3324C162.732 26.5662 162.58 26.8584 162.487 27.1857C162.382 27.5129 162.346 27.8052 162.382 28.0389C162.417 28.2727 162.51 28.4597 162.662 28.5766C162.814 28.6935 163.012 28.7637 163.257 28.7637C163.503 28.7637 163.736 28.7052 163.97 28.5766C164.191 28.4597 164.402 28.2727 164.577 28.0389C164.752 27.8052 164.904 27.5129 164.997 27.1857C165.102 26.8584 165.137 26.5662 165.102 26.3324H165.091Z" fill="#636FB4"/>
<path d="M167.752 25.0933L168.079 28.3428H168.126L170.45 25.0933H171.22L169.936 29.2896H169.329L170.263 26.2621H170.228L168.068 29.2779H167.566L167.262 26.2621H167.227L166.293 29.2896H165.686L166.97 25.0933H167.741H167.752Z" fill="#636FB4"/>
<path d="M172.085 25.0933H174.713L174.549 25.6426H172.552L172.167 26.9167H174.024L173.86 27.4661H172.004L171.607 28.7402H173.615L173.451 29.2896H170.801L172.085 25.0933Z" fill="#636FB4"/>
<path d="M177.573 29.2896H176.989L175.81 26.2271H175.775L174.829 29.2896H174.198L175.483 25.0933H176.078L177.258 28.1557H177.293L178.239 25.0933H178.869L177.585 29.2896H177.573Z" fill="#636FB4"/>
<path d="M179.512 25.0933H182.758L182.595 25.6426H181.299L180.178 29.2896H179.535L180.656 25.6426H179.349L179.512 25.0933Z" fill="#636FB4"/>
<path d="M187.242 28.3312C186.985 28.6585 186.682 28.9039 186.343 29.0793C186.004 29.2546 185.654 29.3364 185.292 29.3364C184.93 29.3364 184.627 29.2546 184.405 29.0793C184.171 28.9039 184.031 28.6585 183.961 28.3312C183.903 28.0039 183.938 27.6298 184.066 27.1857C184.206 26.7415 184.405 26.3674 184.662 26.0402C184.918 25.7129 185.222 25.4674 185.561 25.2921C185.899 25.1167 186.25 25.0349 186.612 25.0349C186.974 25.0349 187.277 25.1167 187.499 25.2921C187.721 25.4674 187.873 25.7129 187.943 26.0402C188.001 26.3674 187.966 26.7415 187.838 27.1857C187.709 27.6181 187.511 28.0039 187.242 28.3312ZM187.312 26.3324C187.277 26.0986 187.184 25.9116 187.032 25.7947C186.88 25.6778 186.682 25.6077 186.437 25.6077C186.191 25.6077 185.958 25.6661 185.736 25.7947C185.514 25.9116 185.304 26.0986 185.129 26.3324C184.954 26.5662 184.802 26.8584 184.708 27.1857C184.603 27.5129 184.568 27.8052 184.603 28.0389C184.638 28.2727 184.732 28.4597 184.883 28.5766C185.035 28.6935 185.234 28.7637 185.479 28.7637C185.724 28.7637 185.958 28.7052 186.191 28.5766C186.413 28.4597 186.623 28.2727 186.798 28.0389C186.974 27.8052 187.125 27.5129 187.219 27.1857C187.324 26.8584 187.359 26.5662 187.324 26.3324H187.312Z" fill="#636FB4"/>
<path d="M189.204 25.0933H191.807L191.644 25.6426H189.682L189.297 26.9167H191.072L190.908 27.4661H189.133L188.573 29.2896H187.942L189.227 25.0933H189.204Z" fill="#636FB4"/>
<path d="M193.956 25.0933H194.587L193.466 28.7402H195.358L195.194 29.2896H192.66L193.945 25.0933H193.956Z" fill="#636FB4"/>
<path d="M197.132 25.0933H199.759L199.596 25.6426H197.599L197.214 26.9167H199.071L198.907 27.4661H197.05L196.653 28.7402H198.662L198.498 29.2896H195.848L197.132 25.0933Z" fill="#636FB4"/>
<path d="M198.931 29.2896L201.721 25.0933H202.457L202.679 29.2896H202.002L201.873 25.8647H201.838L199.608 29.2896H198.942H198.931ZM202.387 27.6531L202.224 28.1908H200.052L200.215 27.6531H202.387Z" fill="#636FB4"/>
<path d="M204.5 25.0932H205.995C206.31 25.0932 206.555 25.1517 206.742 25.2686C206.929 25.3855 207.034 25.5491 207.081 25.7478C207.128 25.9465 207.104 26.192 207.022 26.4491C206.941 26.7063 206.812 26.9401 206.637 27.1505C206.462 27.3492 206.252 27.5128 205.995 27.6297C205.738 27.7466 205.458 27.805 205.142 27.805H204.115L204.278 27.2674H205.248C205.446 27.2674 205.621 27.2323 205.773 27.1622C205.925 27.092 206.053 26.9985 206.147 26.8699C206.24 26.753 206.322 26.6011 206.369 26.4491C206.415 26.2855 206.427 26.1452 206.404 26.0166C206.38 25.8998 206.31 25.8063 206.205 25.7361C206.1 25.666 205.936 25.6309 205.738 25.6309H204.944L203.823 29.2778H203.192L204.477 25.0815L204.5 25.0932Z" fill="#636FB4"/>
<path d="M59.3839 23.8609C63.2874 21.1014 66.1653 18.4584 65.8118 17.9574C65.4584 17.4565 62.0075 19.2873 58.104 22.0468C54.2005 24.8062 51.3226 27.4493 51.6761 27.9503C52.0295 28.4512 55.4804 26.6203 59.3839 23.8609Z" fill="#636FB4"/>
<path d="M80.0241 8.35107C85.6044 4.38726 89.9828 0.969105 89.8037 0.716399C89.6245 0.463692 84.9556 3.47213 79.3754 7.43593C73.7952 11.3997 69.4167 14.8179 69.5959 15.0706C69.775 15.3233 74.4439 12.3149 80.0241 8.35107Z" stroke="#636FB4" stroke-width="0.3" stroke-miterlimit="10"/>
<path d="M87.286 8.29657C87.2159 6.56662 86.7488 5.16396 85.8964 4.05352C84.285 5.28085 82.2882 6.74195 80.1046 8.29657C79.1704 8.96283 78.2596 9.59403 77.3955 10.1902C77.3838 10.4356 77.3488 10.6928 77.3021 10.9733C77.1386 12.0721 76.8 13.4163 76.3095 14.9943C75.8191 16.6073 75.317 17.9515 74.8149 19.0386C74.3128 20.1257 73.7289 21.0023 73.075 21.6686C72.4211 22.3349 71.6621 22.8141 70.798 23.1063C69.9339 23.3985 68.9296 23.5505 67.7619 23.5505C66.5942 23.5505 65.625 23.3985 64.9711 23.1063C64.3055 22.8141 63.8618 22.3349 63.6166 21.6686C63.3714 21.0023 63.3363 20.1257 63.4998 19.0386C63.6633 17.9515 64.0019 16.6073 64.4924 14.9943C64.9828 13.4046 65.4732 12.0721 65.987 10.9733C66.4891 9.87456 67.073 8.9979 67.7386 8.31995C68.3925 7.65368 69.1398 7.17444 69.9806 6.88222C70.8213 6.59 71.8489 6.43804 73.04 6.43804C74.231 6.43804 75.1301 6.59 75.8074 6.88222C76.4847 7.17444 76.9518 7.65368 77.197 8.31995C77.2554 8.49528 77.3138 8.6823 77.3488 8.8927C77.9793 8.43683 78.6333 7.96928 79.2989 7.49004C81.5058 5.92373 83.5727 4.4977 85.2892 3.36388C84.3784 2.48722 83.1523 1.82095 81.6109 1.40016C79.801 0.885846 77.5356 0.640381 74.8382 0.640381C72.1408 0.640381 69.7237 0.897535 67.5868 1.40016C65.4616 1.91446 63.5699 2.73268 61.9234 3.8665C60.2769 5.00032 58.8523 6.47311 57.6613 8.29657C56.4586 10.12 55.4543 12.3526 54.6369 15.006C53.8195 17.6593 53.4459 19.8919 53.5276 21.7153C53.6094 23.5388 54.1115 25.0116 55.0573 26.1454C56.0031 27.2792 57.381 28.0975 59.2027 28.6118C61.0126 29.1261 63.2779 29.3715 65.9753 29.3715C68.6727 29.3715 71.0899 29.1144 73.2268 28.6118C75.352 28.0975 77.2437 27.2792 78.8902 26.1454C80.5366 25.0116 81.9612 23.5388 83.1523 21.7153C84.355 19.8919 85.3592 17.6593 86.1766 15.006C86.994 12.3526 87.3677 10.12 87.286 8.29657Z" fill="#636FB4"/>
<path d="M100.913 11.02L104.159 0.5H94.304L85.3711 29.5H95.2265L99.1267 16.8293H103.179L106.098 11.02H100.913Z" fill="#636FB4"/>
<path d="M18.1228 0.838976L17.7141 2.15981H28.3635L28.7722 0.838976H38.6277L34.6925 13.6032H24.8371L25.164 12.5512C23.8562 12.8902 22.4666 13.1473 21.007 13.3343C19.5474 13.5214 17.9243 13.6032 16.161 13.6032H4.33218L8.26735 0.838976H18.1228ZM45.5055 24.1933H11.4902L11.21 25.105H13.7439C19.0336 25.105 24.405 25.0816 29.8465 25.0232C35.288 24.9647 40.6595 24.8595 45.9725 24.6959L45.1201 29.1143C39.772 29.2779 34.3539 29.3714 28.8657 29.4182C23.3658 29.4649 17.8776 29.4883 12.401 29.4883H0L2.96597 19.8801H36.9929L37.2615 18.9917H3.23454L4.56573 14.6786H48.4481L45.5171 24.1816L45.5055 24.1933ZM17.644 8.78738C19.2905 8.78738 20.8669 8.68219 22.3615 8.48347C23.8562 8.28476 25.3042 7.94579 26.7288 7.46655L26.8339 7.12757H16.1844L15.6706 8.78738H17.644ZM38.9196 13.6032L42.9599 0.5H52.8153L51.7176 4.06509H56.9022L53.983 9.87445H49.931L48.775 13.6149H38.9196V13.6032Z" fill="#636FB4"/>
<path d="M129.171 8.8457L128.097 11.1601H116.245L115.533 13.6498H116.455C117.541 13.6498 118.545 13.6498 119.456 13.6264C120.367 13.6147 121.254 13.5914 122.13 13.5563C123.006 13.5212 123.905 13.4862 124.828 13.4394C125.75 13.3927 126.754 13.3342 127.852 13.2524L127.63 15.5317C126.357 15.6252 125.213 15.7071 124.185 15.7655C123.158 15.8239 122.154 15.8707 121.161 15.9058L120.647 17.6942H128.156L127.081 20.0085H109.099L109.764 17.6942H117.074L117.564 15.9759H111.282L113.314 8.85739H129.148L129.171 8.8457Z" fill="#636FB4"/>
<path d="M129.464 17.7761L130.129 15.4617H146.069L144.726 20.1489H141.141L141.818 17.7761H129.464ZM135.594 14.8656C133.633 14.8656 132.255 14.6084 131.472 14.1058C130.69 13.6032 130.456 12.7966 130.772 11.6862C131.087 10.5758 131.788 9.76923 132.85 9.26661C133.924 8.76399 135.443 8.50684 137.404 8.50684C139.366 8.50684 140.744 8.76399 141.526 9.26661C142.309 9.76923 142.542 10.5758 142.227 11.6862C141.912 12.7966 141.211 13.6032 140.148 14.1058C139.074 14.6084 137.556 14.8656 135.594 14.8656ZM136.26 12.5512C137.089 12.5512 137.685 12.481 138.023 12.3291C138.362 12.1771 138.572 11.9667 138.654 11.6862C138.735 11.4057 138.654 11.1953 138.385 11.0433C138.128 10.8914 137.579 10.8212 136.75 10.8212C135.921 10.8212 135.326 10.8914 134.987 11.0433C134.648 11.1953 134.438 11.4057 134.357 11.6862C134.275 11.9667 134.357 12.1771 134.625 12.3291C134.882 12.481 135.431 12.5512 136.26 12.5512ZM142.647 14.8889L144.446 8.57697H148.03L147.879 9.11466H149.653L148.603 11.3589H147.236L147.049 12.0252H148.93L147.879 14.2694H146.407L146.232 14.8773H142.647V14.8889Z" fill="#636FB4"/>
<path d="M160.174 19.5761C159.158 19.6696 158.166 19.7398 157.208 19.7982C156.251 19.8567 155.293 19.8917 154.312 19.9268C153.343 19.9619 152.35 19.9852 151.323 19.9969C150.307 20.0086 149.221 20.0203 148.1 20.0203H146.827L147.177 17.7059H148.38C149.536 17.7059 150.634 17.7059 151.65 17.6825C152.666 17.6708 153.658 17.6475 154.627 17.6124C155.597 17.5773 156.554 17.5306 157.523 17.4721C158.493 17.4137 159.485 17.3552 160.513 17.2851L160.162 19.5878L160.174 19.5761ZM154.335 16.163C152.537 16.163 151.229 15.8591 150.435 15.2513C149.63 14.6434 149.419 13.6966 149.781 12.3992C150.155 11.1134 150.914 10.1549 152.058 9.54711C153.203 8.93929 154.686 8.63538 156.484 8.63538C158.282 8.63538 159.59 8.93929 160.384 9.54711C161.19 10.1549 161.4 11.1017 161.038 12.3992C160.664 13.685 159.905 14.6434 158.761 15.2513C157.617 15.8591 156.134 16.163 154.335 16.163ZM155.001 13.8486C155.713 13.8486 156.262 13.72 156.659 13.4746C157.056 13.2174 157.325 12.8667 157.453 12.3992C157.582 11.9433 157.523 11.581 157.266 11.3355C157.01 11.0783 156.531 10.9615 155.818 10.9615C155.106 10.9615 154.557 11.09 154.16 11.3355C153.763 11.5927 153.495 11.9433 153.366 12.3992C153.238 12.855 153.296 13.2174 153.553 13.4746C153.81 13.7317 154.289 13.8486 155.001 13.8486ZM160.466 20.1489L163.771 8.58862H167.355L164.051 20.1489H160.466Z" fill="#636FB4"/>
<path d="M175.565 16.6774L175.238 17.8229H176.16C177.246 17.8229 178.262 17.8229 179.196 17.7995C180.131 17.7878 181.041 17.7644 181.952 17.7294C182.851 17.6943 183.774 17.6592 184.72 17.6125C185.665 17.5657 186.681 17.5073 187.779 17.4254L187.557 19.7048C186.389 19.7866 185.303 19.8567 184.311 19.9152C183.318 19.9736 182.349 20.0204 181.403 20.0554C180.457 20.0905 179.512 20.1139 178.566 20.1256C177.608 20.1373 176.592 20.1489 175.506 20.1489H171.011L172.003 16.6774H175.588H175.565ZM178.099 17.2501L178.461 15.976H171.151L171.746 13.8954H190.138L189.134 15.976H182.034L181.672 17.2501H178.087H178.099ZM183.762 8.51855L183.342 9.97966C183.318 10.0615 183.295 10.1433 183.26 10.2134C183.237 10.2953 183.202 10.3654 183.167 10.4355C183.33 10.4355 183.494 10.4238 183.657 10.4121C183.82 10.4121 183.972 10.4121 184.124 10.4121C185.292 10.4121 186.261 10.4589 187.008 10.5524C187.756 10.6459 188.339 10.7862 188.76 10.9498C189.18 11.1252 189.449 11.3239 189.577 11.546C189.706 11.7681 189.729 12.0135 189.659 12.259C189.531 12.7148 189.087 13.0538 188.351 13.2642C187.604 13.4746 186.588 13.5798 185.292 13.5798C185.233 13.3577 185.152 13.159 185.058 12.9837C184.965 12.8084 184.813 12.6564 184.591 12.5044C184.369 12.3642 184.077 12.2239 183.692 12.107C183.307 11.9901 182.805 11.8616 182.174 11.7213C181.427 12.3408 180.341 12.785 178.916 13.0538C177.492 13.311 175.728 13.4512 173.591 13.4512L173.276 11.1135H173.93C175.868 11.1135 177.293 11.0083 178.227 10.7979C179.15 10.5875 179.675 10.2953 179.78 9.92122L180.107 8.7874L183.762 8.51855Z" fill="#636FB4"/>
<path d="M194.434 15.9993L193.909 17.8228H194.831C195.917 17.8228 196.921 17.8228 197.832 17.7994C198.743 17.7877 199.63 17.7644 200.506 17.7293C201.382 17.6942 202.281 17.6592 203.204 17.6124C204.126 17.5656 205.13 17.5072 206.228 17.4254L206.006 19.7047C204.838 19.7865 203.764 19.8567 202.795 19.9151C201.826 19.9735 200.88 20.0203 199.969 20.0554C199.058 20.0904 198.124 20.1138 197.202 20.1255C196.279 20.1372 195.263 20.1489 194.166 20.1489H189.67L190.849 16.011H194.434V15.9993ZM193.033 8.7172H203.752L202.888 11.7212C202.737 12.2355 202.41 12.7148 201.884 13.1473C201.359 13.5798 200.623 13.9655 199.665 14.2928C198.708 14.6201 197.54 14.9006 196.151 15.111C194.761 15.3331 193.138 15.4617 191.27 15.5318V13.3226C192.449 13.2875 193.523 13.2174 194.504 13.1005C195.473 12.9836 196.314 12.8434 197.015 12.6797C197.715 12.5161 198.276 12.329 198.685 12.1187C199.093 11.9083 199.327 11.6862 199.397 11.4524L199.514 11.0316H192.367L193.033 8.7172ZM202.958 16.8994L205.329 8.58862H208.914L208.12 11.3706H210L208.925 13.685H207.454L206.532 16.9111H202.947L202.958 16.8994Z" fill="#636FB4"/>
</g>
<defs>
<clipPath id="clip0_1195_2491">
<rect width="210" height="29" fill="white" transform="translate(0 0.5)"/>
</clipPath>
</defs>
</svg>
