<svg width="34" height="34" viewBox="0 0 34 34" fill="none" xmlns="http://www.w3.org/2000/svg">
<mask id="mask0_1441_858" style="mask-type:alpha" maskUnits="userSpaceOnUse" x="0" y="0" width="34" height="34">
<rect width="33.5" height="33.5" fill="#D9D9D9"/>
</mask>
<g mask="url(#mask0_1441_858)">
<path d="M5.58333 25.125C5.18785 25.125 4.85634 24.9912 4.5888 24.7237C4.32127 24.4562 4.1875 24.1247 4.1875 23.7292C4.1875 23.3337 4.32127 23.0022 4.5888 22.7346C4.85634 22.4671 5.18785 22.3333 5.58333 22.3333H27.9167C28.3122 22.3333 28.6437 22.4671 28.9112 22.7346C29.1787 23.0022 29.3125 23.3337 29.3125 23.7292C29.3125 24.1247 29.1787 24.4562 28.9112 24.7237C28.6437 24.9912 28.3122 25.125 27.9167 25.125H5.58333ZM5.58333 18.1458C5.18785 18.1458 4.85634 18.0121 4.5888 17.7445C4.32127 17.477 4.1875 17.1455 4.1875 16.75C4.1875 16.3545 4.32127 16.023 4.5888 15.7555C4.85634 15.4879 5.18785 15.3542 5.58333 15.3542H27.9167C28.3122 15.3542 28.6437 15.4879 28.9112 15.7555C29.1787 16.023 29.3125 16.3545 29.3125 16.75C29.3125 17.1455 29.1787 17.477 28.9112 17.7445C28.6437 18.0121 28.3122 18.1458 27.9167 18.1458H5.58333ZM5.58333 11.1667C5.18785 11.1667 4.85634 11.0329 4.5888 10.7654C4.32127 10.4978 4.1875 10.1663 4.1875 9.77083C4.1875 9.37535 4.32127 9.04384 4.5888 8.7763C4.85634 8.50877 5.18785 8.375 5.58333 8.375H27.9167C28.3122 8.375 28.6437 8.50877 28.9112 8.7763C29.1787 9.04384 29.3125 9.37535 29.3125 9.77083C29.3125 10.1663 29.1787 10.4978 28.9112 10.7654C28.6437 11.0329 28.3122 11.1667 27.9167 11.1667H5.58333Z" fill="#646AB0"/>
</g>
</svg>
