<svg width="24" height="24" viewBox="0 0 24 24" fill="none" xmlns="http://www.w3.org/2000/svg">
<g id="icn24">
<mask id="mask0_1139_3275" style="mask-type:alpha" maskUnits="userSpaceOnUse" x="0" y="0" width="24" height="24">
<rect id="Bounding box" width="24" height="24" fill="#6170B5"/>
</mask>
<g mask="url(#mask0_1139_3275)">
<path id="near_me" d="M10.0502 13.95L3.5752 11.325C3.35853 11.2417 3.2002 11.1125 3.1002 10.9375C3.0002 10.7625 2.9502 10.5834 2.9502 10.4C2.9502 10.2167 3.00436 10.0375 3.1127 9.86252C3.22103 9.68752 3.38353 9.55836 3.6002 9.47502L18.9502 3.77502C19.1502 3.69169 19.3419 3.67502 19.5252 3.72502C19.7085 3.77502 19.8669 3.86669 20.0002 4.00002C20.1335 4.13336 20.2252 4.29169 20.2752 4.47502C20.3252 4.65836 20.3085 4.85002 20.2252 5.05002L14.5252 20.4C14.4419 20.6167 14.3127 20.7792 14.1377 20.8875C13.9627 20.9959 13.7835 21.05 13.6002 21.05C13.4169 21.05 13.2377 21 13.0627 20.9C12.8877 20.8 12.7585 20.6417 12.6752 20.425L10.0502 13.95ZM13.5502 17.3L17.6002 6.40002L6.7002 10.45L11.6002 12.4L13.5502 17.3Z" fill="#6170B5"/>
</g>
</g>
</svg>
