<svg width="24" height="46" viewBox="0 0 24 46" fill="none" xmlns="http://www.w3.org/2000/svg">
<path d="M13.5 2C13.5 1.17157 12.8284 0.5 12 0.5C11.1716 0.5 10.5 1.17157 10.5 2L13.5 2ZM10.9393 45.0607C11.5251 45.6464 12.4749 45.6464 13.0607 45.0607L22.6066 35.5147C23.1924 34.9289 23.1924 33.9792 22.6066 33.3934C22.0208 32.8076 21.0711 32.8076 20.4853 33.3934L12 41.8787L3.51472 33.3934C2.92893 32.8076 1.97919 32.8076 1.3934 33.3934C0.807613 33.9792 0.807613 34.9289 1.3934 35.5147L10.9393 45.0607ZM10.5 2L10.5 44L13.5 44L13.5 2L10.5 2Z" fill="#6170B5"/>
</svg>
